<svg width="434" height="434" viewBox="0 0 434 434" fill="none" xmlns="http://www.w3.org/2000/svg">
<path d="M148 148H217C255.108 148 286 178.892 286 217C286 255.108 255.108 286 217 286C178.892 286 148 255.108 148 217V148Z" fill="#FB8A60"/>
<path d="M217 0C259.919 5.11799e-07 301.873 12.7268 337.559 36.5711C373.244 60.4154 401.058 94.3061 417.482 133.958C433.906 173.609 438.203 217.241 429.83 259.335C421.457 301.428 400.79 340.094 370.442 370.442C340.094 400.79 301.428 421.457 259.335 429.83C217.241 438.203 173.609 433.906 133.958 417.482C94.3061 401.058 60.4154 373.244 36.5711 337.559C12.7268 301.873 -1.0236e-06 259.919 0 217H79C79 244.364 86.7599 271.113 101.962 293.866C117.165 316.618 138.773 334.351 164.054 344.823C189.335 355.295 217.153 358.034 243.992 352.696C270.83 347.358 295.482 334.181 314.831 314.831C334.181 295.482 347.358 270.83 352.696 243.992C358.034 217.153 355.295 189.335 344.823 164.054C334.351 138.773 316.618 117.165 293.866 101.962C271.113 86.7599 244.364 79 217 79V0Z" fill="#FB8A60"/>
<path d="M0 0H79V79H0V0Z" fill="#FB8A60"/>
<path d="M148 0H217V79H148V0Z" fill="#FB8A60"/>
<path d="M79 148V217H0V148H79Z" fill="#FB8A60"/>
</svg>
