<svg width="20" height="14" viewBox="0 0 20 14" fill="none" xmlns="http://www.w3.org/2000/svg">
<path d="M9.09091 14H5C3.62121 14 2.44303 13.5406 1.46545 12.6219C0.487879 11.7031 -0.000605497 10.5802 5.63253e-07 9.25312C5.63253e-07 8.11562 0.356061 7.10208 1.06818 6.2125C1.7803 5.32292 2.71212 4.75417 3.86364 4.50625C4.24242 3.16458 5 2.07813 6.13636 1.24688C7.27273 0.415625 8.56061 0 10 0C11.7727 0 13.2767 0.594417 14.5118 1.78325C15.747 2.97208 16.3642 4.41933 16.3636 6.125C17.4091 6.24167 18.2767 6.67567 18.9664 7.427C19.6561 8.17833 20.0006 9.05683 20 10.0625C20 11.1562 19.6021 12.0861 18.8064 12.852C18.0106 13.6179 17.0448 14.0006 15.9091 14H10.9091V7.74375L12.3636 9.1L13.6364 7.875L10 4.375L6.36364 7.875L7.63636 9.1L9.09091 7.74375V14Z" fill="#A9A0C4"/>
</svg>
