<svg width="34" height="34" viewBox="0 0 34 34" fill="none" xmlns="http://www.w3.org/2000/svg">
<g clip-path="url(#clip0_2661_2248)">
<path d="M30.4584 5.66663H27.3889V7.55552H30.2222V28.3333H3.7778V7.55552H6.61114V5.66663H3.54169C3.32092 5.67032 3.10303 5.71746 2.90048 5.80537C2.69793 5.89328 2.51468 6.02024 2.3612 6.17898C2.20771 6.33772 2.08701 6.52514 2.00597 6.73054C1.92494 6.93594 1.88516 7.1553 1.88891 7.37607V28.5127C1.88516 28.7335 1.92494 28.9529 2.00597 29.1583C2.08701 29.3637 2.20771 29.5511 2.3612 29.7098C2.51468 29.8686 2.69793 29.9955 2.90048 30.0834C3.10303 30.1713 3.32092 30.2185 3.54169 30.2222H30.4584C30.6791 30.2185 30.897 30.1713 31.0996 30.0834C31.3021 29.9955 31.4854 29.8686 31.6389 29.7098C31.7923 29.5511 31.913 29.3637 31.9941 29.1583C32.0751 28.9529 32.1149 28.7335 32.1111 28.5127V7.37607C32.1149 7.1553 32.0751 6.93594 31.9941 6.73054C31.913 6.52514 31.7923 6.33772 31.6389 6.17898C31.4854 6.02024 31.3021 5.89328 31.0996 5.80537C30.897 5.71746 30.6791 5.67032 30.4584 5.66663Z" fill="white"/>
<path d="M7.55566 13.2222H9.44455V15.1111H7.55566V13.2222Z" fill="white"/>
<path d="M13.2227 13.2222H15.1115V15.1111H13.2227V13.2222Z" fill="white"/>
<path d="M18.8887 13.2222H20.7776V15.1111H18.8887V13.2222Z" fill="white"/>
<path d="M24.5557 13.2222H26.4446V15.1111H24.5557V13.2222Z" fill="white"/>
<path d="M7.55566 17.9445H9.44455V19.8333H7.55566V17.9445Z" fill="white"/>
<path d="M13.2227 17.9445H15.1115V19.8333H13.2227V17.9445Z" fill="white"/>
<path d="M18.8887 17.9445H20.7776V19.8333H18.8887V17.9445Z" fill="white"/>
<path d="M24.5557 17.9445H26.4446V19.8333H24.5557V17.9445Z" fill="white"/>
<path d="M7.55566 22.6666H9.44455V24.5555H7.55566V22.6666Z" fill="white"/>
<path d="M13.2227 22.6666H15.1115V24.5555H13.2227V22.6666Z" fill="white"/>
<path d="M18.8887 22.6666H20.7776V24.5555H18.8887V22.6666Z" fill="white"/>
<path d="M24.5557 22.6666H26.4446V24.5555H24.5557V22.6666Z" fill="white"/>
<path d="M9.44444 9.44447C9.69493 9.44447 9.93515 9.34497 10.1123 9.16785C10.2894 8.99073 10.3889 8.75051 10.3889 8.50003V2.83336C10.3889 2.58288 10.2894 2.34266 10.1123 2.16554C9.93515 1.98842 9.69493 1.88892 9.44444 1.88892C9.19396 1.88892 8.95374 1.98842 8.77662 2.16554C8.5995 2.34266 8.5 2.58288 8.5 2.83336V8.50003C8.5 8.75051 8.5995 8.99073 8.77662 9.16785C8.95374 9.34497 9.19396 9.44447 9.44444 9.44447Z" fill="white"/>
<path d="M24.5558 9.44447C24.8063 9.44447 25.0465 9.34497 25.2236 9.16785C25.4007 8.99073 25.5002 8.75051 25.5002 8.50003V2.83336C25.5002 2.58288 25.4007 2.34266 25.2236 2.16554C25.0465 1.98842 24.8063 1.88892 24.5558 1.88892C24.3053 1.88892 24.0651 1.98842 23.8879 2.16554C23.7108 2.34266 23.6113 2.58288 23.6113 2.83336V8.50003C23.6113 8.75051 23.7108 8.99073 23.8879 9.16785C24.0651 9.34497 24.3053 9.44447 24.5558 9.44447Z" fill="white"/>
<path d="M12.2773 5.66663H21.7218V7.55551H12.2773V5.66663Z" fill="white"/>
</g>
<defs>
<clipPath id="clip0_2661_2248">
<rect width="34" height="34" fill="white"/>
</clipPath>
</defs>
</svg>
