<svg width="7" height="8" viewBox="0 0 7 8" fill="none" xmlns="http://www.w3.org/2000/svg">
<path d="M2.82575 5.33333H1.14055V7M4.17391 2.66667H5.85912V1M1 3.001C1.18901 2.53848 1.50541 2.13767 1.91326 1.84412C2.3211 1.55057 2.80402 1.37605 3.30714 1.34039C3.81026 1.30473 4.31341 1.40937 4.75941 1.6424C5.20541 1.87544 5.57637 2.22753 5.83013 2.65867M6 4.999C5.81103 5.4616 5.49462 5.8625 5.08675 6.15611C4.67888 6.44973 4.1959 6.62429 3.69271 6.65995C3.18952 6.69561 2.68631 6.59094 2.24027 6.35784C1.79423 6.12474 1.42327 5.77256 1.16953 5.34133" stroke="#C4BCDC" stroke-width="0.9" stroke-linecap="round" stroke-linejoin="round"/>
</svg>
