<svg width="66" height="66" viewBox="0 0 53 52" fill="none" xmlns="http://www.w3.org/2000/svg">
<path d="M7 2.94336H10.25H13.5H39.5H42.75H46C47.7239 2.94336 49.3772 3.64525 50.5962 4.89462C51.8152 6.14399 52.5 7.83849 52.5 9.60537V13.7358H0.5V9.60537C0.5 7.83849 1.18482 6.14399 2.40381 4.89462C3.62279 3.64525 5.27609 2.94336 7 2.94336Z" fill="url(#paint0_linear_1144_1003)"/>
<path d="M52.5 45.5219V13.7358H0.5V45.5219C0.5 47.24 1.18482 48.8877 2.40381 50.1026C3.62279 51.3175 5.27609 52 7 52H46C47.7239 52 49.3772 51.3175 50.5962 50.1026C51.8152 48.8877 52.5 47.24 52.5 45.5219Z" fill="url(#paint1_linear_1144_1003)"/>
<rect x="10.3115" width="2.9434" height="6.86792" rx="1.4717" fill="url(#paint2_linear_1144_1003)"/>
<rect x="39.7451" width="2.9434" height="6.86792" rx="1.4717" fill="url(#paint3_linear_1144_1003)"/>
<defs>
<linearGradient id="paint0_linear_1144_1003" x1="26.5" y1="2.94336" x2="26.5" y2="13.7358" gradientUnits="userSpaceOnUse">
<stop stop-color="#FC5162"/>
<stop offset="1" stop-color="#B62433"/>
</linearGradient>
<linearGradient id="paint1_linear_1144_1003" x1="0.0666748" y1="18.1999" x2="52.7704" y2="31.3485" gradientUnits="userSpaceOnUse">
<stop stop-color="#F5F5F5"/>
<stop offset="0.0001" stop-color="#D5D5D5"/>
<stop offset="1" stop-color="white"/>
</linearGradient>
<linearGradient id="paint2_linear_1144_1003" x1="10.287" y1="0.80125" x2="13.4364" y2="1.04904" gradientUnits="userSpaceOnUse">
<stop stop-color="#F5F5F5"/>
<stop offset="0.0001" stop-color="#D5D5D5"/>
<stop offset="1" stop-color="white"/>
</linearGradient>
<linearGradient id="paint3_linear_1144_1003" x1="39.7206" y1="0.80125" x2="42.87" y2="1.04904" gradientUnits="userSpaceOnUse">
<stop stop-color="#F5F5F5"/>
<stop offset="0.0001" stop-color="#D5D5D5"/>
<stop offset="1" stop-color="white"/>
</linearGradient>
</defs>
</svg>
