<svg width="51" height="67" viewBox="0 0 51 67" fill="none" xmlns="http://www.w3.org/2000/svg">
<path fill-rule="evenodd" clip-rule="evenodd" d="M40.0417 46.1225C40.882 48.115 41.7238 50.1068 42.5621 52.1001C43.5151 54.3666 44.4549 56.6389 45.4219 58.8995C45.7552 59.6787 45.8162 60.4259 45.2238 61.0762C44.6474 61.709 43.9149 61.7356 43.1363 61.4595C41.2791 60.8009 39.4111 60.1726 37.5588 59.4999C37.1045 59.335 36.9178 59.4544 36.7268 59.8735C35.875 61.7418 34.9965 63.5978 34.1141 65.4518C33.7618 66.1917 33.1433 66.4686 32.3441 66.4093C31.6342 66.3568 31.1965 65.9562 30.9352 65.3316C29.5581 62.04 28.1871 58.7457 26.8123 55.4532C26.749 55.3013 26.6692 55.1563 26.5562 54.9238C26.0833 56.044 25.6369 57.0892 25.2 58.1385C24.2051 60.5276 23.2183 62.9201 22.2205 65.3079C21.9221 66.0221 21.4033 66.4073 20.5988 66.4152C19.7898 66.4232 19.2984 66.0289 18.9692 65.3255C18.0987 63.4656 17.2068 61.6158 16.3403 59.7541C16.1802 59.41 16.0167 59.3574 15.6577 59.4853C13.6975 60.1843 11.7275 60.856 9.75724 61.5258C9.06895 61.7598 8.41 61.6373 7.92867 61.0989C7.44678 60.5598 7.30726 59.9094 7.60955 59.1888C9.21865 55.3533 10.8139 51.5118 12.417 47.6737C12.4951 47.4868 12.6024 47.3122 12.696 47.132C12.942 47.2351 13.1724 47.3606 13.33 47.5882C12.5372 49.5194 11.7497 51.4529 10.9499 53.3812C10.1281 55.3623 9.29196 57.3374 8.46725 59.3172C8.28743 59.7489 8.22619 60.1907 8.59171 60.5602C8.92855 60.9006 9.31765 60.7984 9.71926 60.6572C11.7693 59.9355 13.8289 59.2411 15.8734 58.5042C16.3957 58.316 16.6505 58.4143 16.8863 58.9338C17.7958 60.9387 18.7522 62.9219 19.6886 64.9145C19.8737 65.3081 20.1359 65.6146 20.5999 65.6079C21.0359 65.6016 21.306 65.3199 21.4661 64.9358C22.9312 61.4205 24.3799 57.8981 25.8693 54.3932C26.1014 53.8467 26.0626 53.4257 25.7381 52.973C25.5878 53.0634 25.5631 53.194 25.5142 53.3106C24.0649 56.7727 22.6158 60.2349 21.1638 63.696C21.0673 63.926 21.0378 64.2521 20.7116 64.2588C20.3656 64.266 20.3036 63.9283 20.1838 63.689C19.1889 61.7023 18.1892 59.7179 17.2165 57.7204C17.0424 57.3629 16.8771 57.2791 16.5017 57.4109C15.4249 57.7891 14.3353 58.1312 13.2493 58.4826C12.1457 58.8398 11.0396 59.1893 9.93629 59.5475C9.75214 59.6073 9.57431 59.6605 9.42616 59.4937C9.29849 59.3499 9.33669 59.1856 9.40357 59.024C9.46015 58.8873 9.50699 58.7466 9.56391 58.6101C11.0522 55.0441 12.5413 51.4783 14.0301 47.9124C15.274 48.2413 16.5483 48.208 17.8065 48.1294C19.47 48.0256 20.8901 48.5579 22.2422 49.4669C23.3387 50.204 24.4674 50.9155 25.86 50.9446C27.7781 55.5522 29.6989 60.1585 31.6099 64.769C31.7905 65.2047 32.0013 65.5927 32.5214 65.6067C33.0408 65.6209 33.2888 65.2466 33.487 64.8226C34.3721 62.929 35.2514 61.0327 36.1569 59.1491C36.5796 58.2698 36.3713 58.2136 37.5019 58.6051C39.4856 59.2921 41.4708 59.975 43.4501 60.6744C43.8854 60.8283 44.275 60.8599 44.6108 60.4925C44.9511 60.1203 44.854 59.7298 44.6781 59.3105C42.934 55.151 41.1997 50.9875 39.4626 46.825C39.6403 46.578 39.7845 46.3031 40.0417 46.1225Z" fill="#FCCDD3"/>
<mask id="mask0_1282_2823" style="mask-type:alpha" maskUnits="userSpaceOnUse" x="0" y="0" width="51" height="51">
<path d="M0.919922 0.610855H50.9844V50.9614H0.919922V0.610855Z" fill="#6534FF"/>
</mask>
<g mask="url(#mask0_1282_2823)">
<path fill-rule="evenodd" clip-rule="evenodd" d="M17.7101 4.41004C16.8143 4.41004 16.2043 4.38522 15.5971 4.41538C14.492 4.47036 13.5708 4.88439 12.9121 5.8311C12.4025 6.56344 11.9811 7.34409 11.5814 8.13609C10.8636 9.55848 9.80773 10.6207 8.38996 11.3367C7.76479 11.6525 7.16309 12.0152 6.55386 12.3622C5.2796 13.0879 4.68144 14.1997 4.69407 15.6611C4.70215 16.6069 4.69418 17.5528 4.70879 18.4984C4.72507 19.546 4.45866 20.5134 3.93059 21.4103C3.50828 22.1276 3.08695 22.846 2.64913 23.5538C1.74426 25.0168 1.69853 26.4747 2.63585 27.942C2.85487 28.2847 3.0317 28.6564 3.26788 28.9859C4.38015 30.5378 4.87633 32.2527 4.71333 34.1667C4.66306 34.7561 4.6913 35.353 4.69639 35.9462C4.70702 37.2113 5.14185 38.2651 6.2374 38.9699C6.65595 39.2392 7.07063 39.5287 7.52174 39.7307C9.54309 40.6355 11.0576 42.0418 11.9593 44.0952C12.1444 44.5169 12.3992 44.9083 12.6294 45.3095C13.3508 46.5662 14.4546 47.1457 15.8789 47.1451C16.8567 47.1448 17.8347 47.1424 18.8125 47.1327C19.8558 47.1225 20.811 47.4225 21.7014 47.9491C22.4163 48.3719 23.1302 48.7969 23.8344 49.2373C25.2407 50.117 26.6417 50.1281 28.0509 49.2489C28.5834 48.9167 29.1325 48.6109 29.657 48.2668C30.8647 47.4747 32.1636 47.0454 33.624 47.1265C34.4151 47.1704 35.2103 47.1431 36.0036 47.1455C37.4502 47.1498 38.5691 46.5665 39.2927 45.2823C39.6379 44.6698 40 44.0656 40.3139 43.4371C41.0254 42.0127 42.0682 40.9383 43.4927 40.2262C44.1355 39.9048 44.7583 39.5401 45.3755 39.1703C46.3772 38.5707 47.0494 37.7423 47.164 36.5232C47.2703 35.3931 47.1966 34.2631 47.1934 33.1335C47.1902 31.9878 47.4748 30.9386 48.0639 29.9642C48.4946 29.2517 48.9156 28.5334 49.3437 27.8195C50.1365 26.4971 50.1762 25.1629 49.3991 23.8215C49.056 23.2292 48.7105 22.6374 48.3403 22.0621C47.5473 20.8303 47.1072 19.5106 47.1929 18.0218C47.2398 17.2085 47.2211 16.3902 47.2098 15.5745C47.1925 14.3346 46.765 13.3027 45.6967 12.5897C44.9731 12.1066 44.2125 11.6915 43.4415 11.2957C42.0821 10.5977 41.0622 9.57117 40.3631 8.20721C40.0172 7.53252 39.6413 6.87252 39.259 6.21764C38.664 5.19859 37.8065 4.54983 36.6099 4.43987C36.152 4.39779 35.6891 4.41338 35.2282 4.40514C34.2331 4.38711 33.2331 4.48784 32.2433 4.35216C31.0203 4.18455 29.9717 3.56372 29.0105 2.85075C26.9574 1.32774 24.9743 1.30637 22.921 2.84362C21.2999 4.05722 19.4894 4.71756 17.7101 4.41004ZM13.3306 47.5881C13.173 47.3605 12.9426 47.235 12.6965 47.132C11.6375 45.8803 10.9926 44.3707 10.1398 42.9906C9.60465 42.1245 8.78249 41.5983 7.91615 41.1237C7.07528 40.6631 6.20905 40.2449 5.4396 39.6607C4.32169 38.812 3.74612 37.6789 3.70294 36.2784C3.68245 35.6115 3.65023 34.9383 3.7129 34.2767C3.88021 32.5111 3.39677 30.9522 2.39579 29.5144C2.01698 28.9703 1.6941 28.3803 1.40222 27.7832C0.741946 26.4328 0.771732 25.0703 1.41728 23.7146C1.78456 22.943 2.25195 22.2307 2.70549 21.5116C3.39544 20.4179 3.79108 19.2576 3.71611 17.9419C3.67082 17.1468 3.70526 16.3475 3.69552 15.5501C3.67337 13.7534 4.46907 12.423 5.98283 11.511C6.56737 11.1588 7.15822 10.8124 7.76977 10.5119C9.11291 9.85198 10.1006 8.86198 10.7642 7.51115C11.2198 6.58325 11.693 5.65959 12.3766 4.86458C13.2155 3.88905 14.2884 3.44597 15.5445 3.40969C16.1896 3.3911 16.8413 3.35036 17.4801 3.41681C19.2827 3.60401 20.8568 3.06533 22.3145 2.04094C22.7958 1.70281 23.3222 1.42501 23.8444 1.15133C25.2557 0.411528 26.6702 0.448702 28.0883 1.15534C28.8176 1.51873 29.5003 1.95936 30.1811 2.4001C31.2848 3.11452 32.469 3.48103 33.789 3.42327C34.5809 3.38854 35.3752 3.41158 36.1683 3.40457C37.9594 3.38865 39.2685 4.21137 40.1641 5.73749C40.529 6.35943 40.8934 6.98415 41.2122 7.63057C41.8338 8.89114 42.7677 9.81525 44.0165 10.4424C44.7908 10.8313 45.5539 11.2449 46.2693 11.7397C47.5493 12.6252 48.1932 13.8514 48.2096 15.4098C48.2159 16.0217 48.2558 16.6384 48.1971 17.2448C48.0241 19.0293 48.5107 20.6093 49.5306 22.0575C49.8488 22.5094 50.112 23.003 50.3749 23.4914C51.2497 25.1172 51.1623 26.7242 50.245 28.3028C49.7895 29.0867 49.3257 29.8656 48.8639 30.6455C48.3996 31.4297 48.1871 32.2783 48.1975 33.1893C48.2083 34.1164 48.1974 35.0439 48.2131 35.971C48.2436 37.7692 47.4513 39.1024 45.9462 40.0227C45.301 40.4172 44.637 40.7829 43.9668 41.1331C42.8758 41.703 41.9794 42.4648 41.4029 43.5792C40.9612 44.433 40.4972 45.2752 40.0428 46.1224C39.785 46.303 39.6409 46.5779 39.4631 46.8249C39.2292 46.9576 39.0508 47.1521 38.8794 47.3547C37.8916 48.0207 36.7893 48.195 35.6248 48.1546C34.7971 48.1259 33.9678 48.1483 33.1391 48.1462C32.5626 48.1446 32.0073 48.2516 31.4801 48.4844C29.8409 49.208 28.4648 50.443 26.7197 50.9614C26.4347 50.8797 26.1472 50.9434 25.8606 50.9445C24.468 50.9154 23.3393 50.2039 22.2429 49.4668C20.8906 48.5578 19.4706 48.0255 17.8071 48.1293C16.5489 48.208 15.2745 48.2412 14.0306 47.9124C13.8199 47.7547 13.5965 47.625 13.3306 47.5881Z" fill="#6534FF"/>
</g>
<path fill-rule="evenodd" clip-rule="evenodd" d="M33.029 31.016C33.4773 31.0295 33.7792 30.6565 33.6482 30.1951C32.8504 27.3877 32.0412 24.5836 31.2343 21.7788C31.1099 21.3467 30.7821 21.2593 30.4059 21.3492C30.0986 21.4224 30.0175 21.7139 29.9377 21.9847C29.4202 23.7385 28.9022 25.4923 28.3836 27.2458C28.1006 28.2022 27.8045 29.1548 27.5374 30.1155C27.4273 30.5115 27.5112 30.8795 27.9675 30.994C28.3651 31.0937 28.6388 30.9331 28.7459 30.5026C28.8483 30.0908 29.0027 29.692 29.1058 29.2803C29.177 28.9964 29.3237 28.8948 29.6121 28.9023C30.2565 28.9191 30.9019 28.9188 31.5462 28.9025C31.8501 28.895 32.0171 28.976 32.0815 29.3058C32.1591 29.703 32.2963 30.0892 32.4186 30.4766C32.5129 30.7746 32.6626 31.0227 33.029 31.016ZM18.5397 26.1953C18.4961 26.6555 18.6286 27.0905 18.8428 27.5121C19.2533 28.32 19.6623 29.1292 20.0519 29.9474C20.3655 30.6062 20.8399 30.9971 21.5887 31.0228C22.3769 31.0499 22.8597 30.6352 23.1832 29.9621C23.6078 29.0787 24.0496 28.2035 24.4633 27.3151C24.8192 26.5507 24.8168 25.7733 24.4469 25.0099C23.9871 24.0611 23.5331 23.1091 23.0508 22.172C22.4728 21.0492 20.8667 20.9684 20.2394 22.0687C19.6546 23.0946 19.178 24.1831 18.6694 25.2516C18.5334 25.5374 18.5102 25.8589 18.5397 26.1953ZM36.4719 26.0051C36.4719 27.4138 36.4773 28.8226 36.4687 30.2313C36.466 30.6902 36.6278 31.005 37.1167 31.0109C37.6748 31.0174 37.7595 30.5916 37.7687 30.1649C37.7858 29.3681 37.7877 28.5704 37.7679 27.774C37.7595 27.4335 37.8734 27.3231 38.2107 27.3306C39.0771 27.3498 39.9444 27.3513 40.8108 27.3324C41.8421 27.31 42.6254 26.5323 42.6569 25.4943C42.6805 24.7165 42.6821 23.9367 42.6564 23.159C42.6216 22.1001 41.8079 21.3289 40.7561 21.326C39.5021 21.3225 38.2477 21.3409 36.9942 21.316C36.5909 21.3079 36.4529 21.4052 36.4615 21.8347C36.4892 23.2243 36.4719 24.6149 36.4719 26.0051ZM9.56484 26.0224C9.56484 27.394 9.56407 28.7657 9.56584 30.1374C9.56606 30.285 9.54602 30.4451 9.59474 30.5775C9.70835 30.8857 9.94021 31.046 10.282 31.0144C10.7087 30.975 10.8401 30.6587 10.852 30.314C10.8801 29.4994 10.8854 28.6826 10.8585 27.868C10.8451 27.4637 10.9463 27.3104 11.3765 27.3271C12.2234 27.3603 13.0731 27.3523 13.9209 27.3315C14.9238 27.3069 15.7093 26.5399 15.7479 25.5325C15.7784 24.7366 15.7775 23.9379 15.7485 23.1419C15.7099 22.0856 14.8928 21.3282 13.8319 21.3258C12.5779 21.323 11.3234 21.3443 10.0701 21.3146C9.64003 21.3044 9.54912 21.4491 9.55587 21.8518C9.57913 23.2416 9.56484 24.6321 9.56484 26.0224ZM17.7098 4.41065C19.4891 4.71817 21.2996 4.05784 22.9207 2.84413C24.9739 1.30687 26.9571 1.32835 29.0102 2.85136C29.9714 3.56423 31.0199 4.18505 32.243 4.35278C33.2328 4.48834 34.2328 4.38772 35.2279 4.40564C35.6888 4.41399 36.1517 4.39841 36.6096 4.44048C37.8063 4.55044 38.6637 5.1992 39.2587 6.21825C39.641 6.87313 40.0169 7.53302 40.3628 8.20782C41.0619 9.57178 42.0818 10.5983 43.4412 11.2962C44.2122 11.6921 44.9728 12.1072 45.6964 12.5902C46.7647 13.3033 47.1923 14.3352 47.2094 15.575C47.2208 16.3908 47.2395 17.209 47.1926 18.0225C47.1069 19.5111 47.547 20.8309 48.34 22.0627C48.7102 22.6379 49.0557 23.2298 49.3989 23.8221C50.1758 25.1635 50.1362 26.4976 49.3434 27.82C48.9153 28.5339 48.4943 29.2523 48.0636 29.9647C47.4745 30.9392 47.1899 31.9884 47.1931 33.1341C47.1964 34.2636 47.27 35.3937 47.1637 36.5238C47.0491 37.7429 46.377 38.5712 45.3752 39.171C44.758 39.5406 44.1353 39.9054 43.4924 40.2267C42.068 40.9389 41.0251 42.0133 40.3136 43.4377C39.9997 44.0661 39.6376 44.6704 39.2923 45.2829C38.5688 46.567 37.4499 47.1503 36.0034 47.146C35.21 47.1437 34.4149 47.171 33.6237 47.127C32.1633 47.046 30.8645 47.4752 29.6567 48.2673C29.1322 48.6114 28.5831 48.9172 28.0506 49.2495C26.6413 50.1286 25.2405 50.1176 23.8341 49.2378C23.13 48.7974 22.416 48.3726 21.7011 47.9497C20.8108 47.4231 19.8555 47.123 18.8121 47.1334C17.8344 47.143 16.8564 47.1453 15.8786 47.1456C14.4543 47.1462 13.3505 46.5667 12.6291 45.3099C12.3989 44.9089 12.1442 44.5175 11.959 44.0958C11.0574 42.0424 9.54281 40.6361 7.52146 39.7312C7.07024 39.5293 6.65567 39.2397 6.23712 38.9704C5.14157 38.2656 4.70674 37.2118 4.69611 35.9467C4.69102 35.3535 4.66278 34.7567 4.71305 34.1673C4.87605 32.2533 4.37987 30.5384 3.26761 28.9865C3.03142 28.6569 2.85459 28.2853 2.63557 27.9425C1.69825 26.4754 1.74387 25.0175 2.64885 23.5543C3.08668 22.8466 3.508 22.1283 3.93032 21.4109C4.45838 20.5139 4.72479 19.5465 4.70852 18.499C4.6939 17.5534 4.70187 16.6075 4.69379 15.6617C4.68117 14.2004 5.27932 13.0885 6.55358 12.3627C7.16281 12.0158 7.76451 11.653 8.38957 11.3373C9.80745 10.6213 10.8634 9.55899 11.5811 8.1367C11.9808 7.34459 12.4023 6.56405 12.9118 5.8316C13.5706 4.88489 14.4916 4.47086 15.5967 4.41599C16.204 4.38583 16.814 4.41065 17.7098 4.41065Z" fill="#FEFEFE"/>
<path fill-rule="evenodd" clip-rule="evenodd" d="M38.8788 47.3548C40.2416 50.6305 41.6044 53.906 42.9672 57.1816C43.2015 57.7447 43.4426 58.3049 43.6672 58.8718C43.746 59.0703 43.8836 59.289 43.6969 59.4963C43.5063 59.7079 43.289 59.577 43.0824 59.5102C40.9459 58.8198 38.8052 58.1413 36.6763 57.428C36.2525 57.2859 36.0788 57.3772 35.8871 57.7724C34.9183 59.7704 33.9166 61.7523 32.9242 63.739C32.8192 63.9492 32.7509 64.1964 32.4357 64.1945C32.1077 64.1924 32.066 63.9201 31.9791 63.7125C30.26 59.6047 28.547 55.4941 26.8358 51.3828C26.7802 51.2493 26.7573 51.102 26.7192 50.9614C28.4642 50.4432 29.8403 49.2082 31.4795 48.4845C32.0066 48.2519 32.562 48.1448 33.1385 48.1464C33.9672 48.1486 34.7965 48.1261 35.6241 48.1547C36.7887 48.1953 37.891 48.0209 38.8788 47.3548Z" fill="#FCCDD3"/>
<path fill-rule="evenodd" clip-rule="evenodd" d="M10.8131 24.3106C10.8131 24.7732 10.8217 25.2359 10.8098 25.6981C10.8029 25.9652 10.8662 26.1083 11.1751 26.1028C12.0399 26.0874 12.9051 26.0998 13.7701 26.096C14.2421 26.0939 14.4924 25.8243 14.5082 25.3742C14.5322 24.6905 14.5361 24.0047 14.5095 23.3213C14.4916 22.8547 14.2492 22.5703 13.7371 22.5764C12.909 22.5863 12.0804 22.5901 11.2525 22.5739C10.9105 22.5672 10.7953 22.7048 10.809 23.0344C10.8266 23.4591 10.8132 23.8851 10.8131 24.3106ZM9.56474 26.0215C9.56474 24.6312 9.57891 23.2407 9.55577 21.8509C9.54891 21.4483 9.63992 21.3035 10.07 21.3137C11.3232 21.3434 12.5778 21.3221 13.8318 21.3249C14.8927 21.3273 15.7098 22.0848 15.7483 23.141C15.7774 23.937 15.7783 24.7358 15.7478 25.5317C15.7092 26.5391 14.9237 27.306 13.9207 27.3306C13.0729 27.3514 12.2233 27.3594 11.3763 27.3263C10.9462 27.3095 10.845 27.4628 10.8584 27.8672C10.8853 28.6817 10.88 29.4986 10.8518 30.3132C10.84 30.6579 10.7086 30.9742 10.2819 31.0136C9.94011 31.0451 9.70824 30.8847 9.59464 30.5765C9.54592 30.4443 9.56585 30.284 9.56563 30.1366C9.56397 28.7648 9.56474 27.3932 9.56474 26.0215Z" fill="#6534FF"/>
<path fill-rule="evenodd" clip-rule="evenodd" d="M37.7212 24.3344C37.7212 24.797 37.7332 25.2599 37.7168 25.7218C37.7063 26.0151 37.8231 26.1075 38.1056 26.1033C38.952 26.0906 39.7988 26.0973 40.6454 26.0988C41.1438 26.0997 41.4038 25.8312 41.4184 25.3527C41.4391 24.6689 41.4463 23.9829 41.4153 23.2999C41.394 22.8282 41.1284 22.5678 40.6225 22.5765C39.8129 22.5903 39.0025 22.5934 38.1932 22.5741C37.831 22.5654 37.6972 22.6973 37.7158 23.0582C37.7377 23.4825 37.7209 23.9089 37.7212 24.3344ZM36.4727 26.0053C36.4727 24.6151 36.4901 23.2246 36.4623 21.8349C36.4538 21.4055 36.5917 21.3082 36.9949 21.3162C38.2486 21.3412 39.5029 21.3227 40.7569 21.3262C41.8087 21.3291 42.6224 22.1003 42.6572 23.1592C42.6829 23.937 42.6813 24.7167 42.6578 25.4945C42.6262 26.5326 41.8429 27.3102 40.8116 27.3326C39.9452 27.3515 39.0779 27.3501 38.2116 27.3308C37.8742 27.3233 37.7604 27.4337 37.7688 27.7742C37.7884 28.5708 37.7866 29.3683 37.7695 30.1651C37.7604 30.5918 37.6756 31.0177 37.1176 31.0111C36.6286 31.0053 36.4668 30.6905 36.4695 30.2316C36.478 28.8229 36.4727 27.414 36.4727 26.0053Z" fill="#6534FF"/>
<path fill-rule="evenodd" clip-rule="evenodd" d="M23.4388 26.1801C23.4029 26.0002 23.4017 25.8036 23.3253 25.6433C22.88 24.7086 22.4303 23.7753 21.9537 22.8565C21.7462 22.4563 21.419 22.4602 21.2097 22.8687C20.7545 23.7569 20.3279 24.6601 19.9043 25.5641C19.6857 26.0309 19.7439 26.5038 19.966 26.9563C20.3653 27.7697 20.7725 28.5793 21.1751 29.3912C21.2673 29.5771 21.3606 29.7751 21.6041 29.7642C21.8134 29.755 21.9074 29.5832 21.9927 29.4118C22.4132 28.5676 22.8384 27.7258 23.2589 26.8816C23.3675 26.6635 23.4309 26.4323 23.4388 26.1801ZM18.5398 26.1948C18.5104 25.8583 18.5336 25.5369 18.6696 25.2511C19.1781 24.1826 19.6549 23.094 20.2395 22.0682C20.8668 20.9678 22.4729 21.0486 23.0509 22.1714C23.5332 23.1086 23.9872 24.0606 24.447 25.0093C24.8169 25.7727 24.8195 26.5501 24.4634 27.3145C24.0497 28.2029 23.6079 29.0782 23.1833 29.9615C22.8598 30.6347 22.3771 31.0494 21.5889 31.0222C20.84 30.9965 20.3658 30.6056 20.0521 29.947C19.6625 29.1286 19.2535 28.3194 18.8429 27.5115C18.6288 27.0899 18.4963 26.6551 18.5398 26.1948Z" fill="#6534FF"/>
<path fill-rule="evenodd" clip-rule="evenodd" d="M30.6815 24.4709C30.634 24.472 30.5865 24.473 30.5389 24.4741C30.3693 25.0516 30.1857 25.6255 30.0344 26.2077C29.9108 26.6833 29.4466 27.321 29.7686 27.5932C30.0829 27.8588 30.7842 27.6579 31.3155 27.6695C31.5465 27.6746 31.5907 27.5971 31.5229 27.3721C31.2327 26.408 30.9604 25.4384 30.6815 24.4709ZM33.0295 31.0151C32.6628 31.0221 32.513 30.774 32.4188 30.4762C32.2964 30.0887 32.1593 29.7024 32.0817 29.3052C32.0173 28.9754 31.8502 28.8944 31.5465 28.902C30.902 28.9182 30.2566 28.9186 29.6123 28.9019C29.3238 28.8943 29.1771 28.9959 29.1059 29.2797C29.0028 29.6914 28.8485 30.0902 28.746 30.502C28.639 30.9326 28.3653 31.0931 27.9676 30.9934C27.5113 30.8791 27.4275 30.511 27.5376 30.1149C27.8047 29.1542 28.1007 28.2016 28.3837 27.2452C28.9025 25.4917 29.4204 23.7381 29.9378 21.9841C30.0177 21.7134 30.0987 21.4218 30.4061 21.3486C30.7822 21.2589 31.1101 21.3462 31.2344 21.7782C32.0413 24.5831 32.8505 27.3871 33.6483 30.1945C33.7794 30.6559 33.4775 31.0289 33.0295 31.0151Z" fill="#6534FF"/>
<path fill-rule="evenodd" clip-rule="evenodd" d="M10.8136 24.311C10.8137 23.8855 10.827 23.4594 10.8094 23.0347C10.7958 22.7052 10.9111 22.5675 11.253 22.5743C12.0809 22.5904 12.9094 22.5866 13.7375 22.5767C14.2497 22.5706 14.492 22.8551 14.5101 23.3216C14.5365 24.005 14.5327 24.6908 14.5086 25.3745C14.4929 25.8246 14.2427 26.0942 13.7706 26.0963C12.9056 26.1001 12.0403 26.0877 11.1756 26.1031C10.8667 26.1087 10.8033 25.9655 10.8102 25.6984C10.8223 25.2362 10.8136 24.7735 10.8136 24.311Z" fill="#FEFEFE"/>
<path fill-rule="evenodd" clip-rule="evenodd" d="M37.7205 24.3333C37.7204 23.9078 37.7371 23.4814 37.7153 23.0571C37.6967 22.6962 37.8305 22.5643 38.1927 22.573C39.002 22.5923 39.8124 22.5892 40.6219 22.5754C41.1277 22.5667 41.3935 22.8271 41.4147 23.2988C41.4458 23.9818 41.4386 24.6678 41.4179 25.3516C41.4032 25.8301 41.1432 26.0986 40.6449 26.0977C39.7982 26.0962 38.9515 26.0895 38.1051 26.1022C37.8226 26.1064 37.7058 26.014 37.7163 25.7206C37.7327 25.2588 37.7206 24.7959 37.7205 24.3333Z" fill="#FEFEFE"/>
<path fill-rule="evenodd" clip-rule="evenodd" d="M23.4393 26.1792C23.4314 26.4314 23.368 26.6626 23.2593 26.8807C22.8389 27.7249 22.4137 28.5667 21.9932 29.4109C21.9079 29.5823 21.8139 29.7541 21.6046 29.7633C21.3611 29.7742 21.2678 29.5762 21.1755 29.3903C20.7729 28.5784 20.3658 27.7688 19.9665 26.9554C19.7444 26.5029 19.6861 26.03 19.9048 25.5632C20.3284 24.6592 20.755 23.756 21.2102 22.8678C21.4195 22.4593 21.7467 22.4555 21.9542 22.8556C22.4308 23.7744 22.8804 24.7077 23.3258 25.6424C23.4022 25.8028 23.4034 25.9993 23.4393 26.1792Z" fill="#FEFEFE"/>
<path fill-rule="evenodd" clip-rule="evenodd" d="M30.6815 24.4714C30.9605 25.4389 31.2327 26.4086 31.523 27.3726C31.5907 27.5977 31.5465 27.6751 31.3156 27.67C30.7843 27.6584 30.0829 27.8593 29.7687 27.5938C29.4467 27.3215 29.9109 26.6838 30.0344 26.2082C30.1858 25.626 30.3694 25.0522 30.5389 24.4746C30.5865 24.4735 30.634 24.4725 30.6815 24.4714Z" fill="#FEFEFE"/>
</svg>
