<svg width="66" height="66" viewBox="0 0 66 66" fill="none" xmlns="http://www.w3.org/2000/svg">
<g clip-path="url(#clip0_1798_1011)">
<path d="M31.0899 -0.200867L30.6465 1.30276V44.9345L31.0899 45.3761L51.392 33.4044L31.0899 -0.200867Z" fill="#00D6C6"/>
<path d="M31.0901 -0.200836L10.7881 33.4044L31.0901 45.3763V24.1987V-0.200836Z" fill="#FF8D69"/>
<path d="M31.0897 49.2109L30.8398 49.5148V65.0573L31.0897 65.7856L51.4038 37.2452L31.0897 49.2109Z" fill="#6736C1"/>
<path d="M31.0901 65.7854V49.2107L10.7881 37.245L31.0901 65.7854Z" fill="#FF8D69"/>
<path d="M31.0898 45.3761L51.3916 33.4045L31.0898 24.1989V45.3761Z" fill="#6736C1"/>
<path d="M10.7881 33.4045L31.0898 45.3761V24.1989L10.7881 33.4045Z" fill="#00ABFF"/>
<path d="M29.1312 43.7001C28.6622 44.909 27.6669 45.4796 27.4428 46.4515C27.1849 47.5771 28.2505 48.7261 29.3136 48.6896C30.3766 48.6531 32.7216 47.3764 33.5319 46.9283C34.4621 46.415 36.6377 45.3989 36.6377 45.3989L42.7033 43.846L46.8825 47.9184L46.5151 51.2925C46.5151 51.2925 46.2963 52.1732 45.8195 53.0174C45.3427 53.8615 43.9487 55.1461 43.1045 54.9246C42.2603 54.7057 41.8461 53.2336 40.5746 52.6135C39.0712 51.8788 36.7966 51.8058 36.7236 52.4311C36.6507 53.0564 37.8232 53.2753 38.1176 53.6036C38.412 53.9345 38.8133 55.292 39.2536 55.7323C39.6939 56.1726 40.6475 56.7953 40.6475 56.7953C40.6475 56.7953 39.6939 58.0069 39.621 58.9605C39.548 59.9141 39.7304 60.8678 39.5845 61.1987C39.4386 61.5295 38.5579 62.4832 38.9983 62.8115C39.4386 63.1397 41.8226 61.454 42.4818 60.1695C43.141 58.885 43.4354 58.0043 43.7298 57.749C44.0243 57.4936 47.9846 56.8318 50.736 53.3118C53.4875 49.7917 53.5239 45.4979 53.451 43.6636C53.378 41.8293 52.5964 40.154 53.2556 39.1274C53.9148 38.1009 54.6287 37.8898 55.0039 37.77C55.5041 37.611 56.1164 37.4755 55.9809 36.9153C55.8793 36.4854 55.4181 35.326 52.8257 34.7137C50.9966 34.2838 49.1206 34.7866 49.1206 34.7866C49.1206 34.7866 43.0941 30.7481 36.5022 32.5876C30.1943 34.3489 28.2115 38.5308 28.287 40.8783C28.3287 42.2332 29.3865 43.0409 29.1312 43.7001Z" fill="#5FD5FF"/>
<path d="M41.1971 43.7729L38.7036 45.1669C38.7036 45.1669 38.8287 46.7927 39.5843 47.9548C40.0845 48.726 40.8323 49.3852 41.5645 49.6431C42.4321 49.948 43.357 49.9454 43.3987 49.7161C43.4717 49.3123 42.8255 48.8094 42.5181 47.9548C42.2497 47.2096 42.2236 44.5077 42.2236 44.5077L41.1971 43.7729Z" fill="#006DA6"/>
<path d="M36.2466 45.5708C36.2466 45.5708 39.5842 41.9388 43.3987 42.452C47.2132 42.9653 48.1433 45.7402 47.9114 48.7964C47.7707 50.662 45.8557 53.3587 45.8218 53.0148C45.7984 52.7698 46.4576 48.773 45.2095 47.4155C43.7713 45.8496 42.0438 45.3858 40.3919 45.3129C38.74 45.2399 36.2466 45.5708 36.2466 45.5708Z" fill="#DDECF5"/>
<path d="M35.7148 39.0415C36.0666 39.586 35.9337 40.2452 35.4386 40.5631C34.9436 40.8809 34.1385 40.7038 33.7867 40.1592C33.435 39.6147 33.5601 38.7965 34.0994 38.5647C34.8889 38.2233 35.3631 38.4969 35.7148 39.0415Z" fill="#2D2B30"/>
<path d="M27.48 47.3139C27.48 47.3139 28.3737 47.3399 28.8192 47.1862C29.937 46.7954 31.2762 45.5552 31.8833 44.9846C32.3861 44.513 33.0948 43.6818 33.5352 43.2415C33.9755 42.8012 34.3976 42.3243 34.5982 42.3973C34.7988 42.4703 35.0021 42.9835 34.9474 43.205C34.8926 43.4239 33.4075 44.7449 32.691 45.4067C31.9745 46.0659 30.7838 47.1497 29.9396 47.5718C29.5722 47.7568 28.913 48.0434 28.16 47.9757C27.7014 47.934 27.4617 47.478 27.48 47.3139ZM40.8879 38.7131C41.0651 38.9867 41.6956 38.6428 42.0604 38.4369C42.5189 38.179 44.3167 37.0977 46.0598 36.9518C47.8029 36.8059 49.1031 37.4104 49.3975 37.538C49.6919 37.6657 50.3693 37.9601 50.3693 38.1243C50.3693 38.2884 48.7148 39.0623 48.0218 39.5182C47.3261 39.9768 46.1875 40.5265 45.4371 40.6907C44.8248 40.8262 43.6393 40.6542 43.6211 41.0034C43.6028 41.3525 43.5116 41.5531 44.9603 41.5531C46.409 41.5531 48.9024 40.0497 49.4548 39.6824C50.0072 39.315 51.9665 38.3431 51.8206 37.994C51.6122 37.499 49.2724 36.0242 46.2083 36.0868C43.5481 36.1415 42.0995 37.3166 41.4403 37.8116C41.2787 37.9315 40.6847 38.4005 40.8879 38.7131Z" fill="#063650"/>
</g>
<defs>
<clipPath id="clip0_1798_1011">
<rect width="66" height="66" fill="white"/>
</clipPath>
</defs>
</svg>
