<svg width="66" height="66" viewBox="0 0 52 52" fill="none" xmlns="http://www.w3.org/2000/svg">
<path fill-rule="evenodd" clip-rule="evenodd" d="M26 -0.0124512C40.3679 -0.0124512 52.0124 11.632 52.0124 26C52.0124 40.3679 40.3679 52.0124 26 52.0124C11.632 52.0124 -0.0124512 40.3679 -0.0124512 26C-0.0124512 11.632 11.632 -0.0124512 26 -0.0124512Z" fill="#794FDD"/>
<path d="M34.5115 20.1747C33.8974 19.7962 33.0909 19.7962 32.4147 20.1747L27.6067 23.0842L24.3374 24.9826L19.5294 27.8922C18.9153 28.2706 18.1088 28.2706 17.4326 27.8922L13.611 25.6154C12.9969 25.2369 12.5626 24.5421 12.5626 23.7791V19.2875C12.5626 18.5307 12.9348 17.8296 13.611 17.4512L17.3705 15.2365C17.9847 14.858 18.7912 14.858 19.4674 15.2365L23.2269 17.4512C23.8411 17.8296 24.2753 18.5245 24.2753 19.2875V22.1971L27.5447 20.2367V17.3271C27.5447 16.5703 27.1725 15.8692 26.4963 15.4908L19.5294 11.3157C18.9153 10.9373 18.1088 10.9373 17.4326 11.3157L10.3417 15.4908C9.66544 15.8692 9.29321 16.5641 9.29321 17.3271V25.7457C9.29321 26.5025 9.66544 27.2035 10.3417 27.582L17.4326 31.7571C18.0467 32.1355 18.8532 32.1355 19.5294 31.7571L24.3374 28.9096L27.6067 26.9492L32.4147 24.1017C33.0288 23.7232 33.8353 23.7232 34.5115 24.1017L38.271 26.3164C38.8852 26.6948 39.3195 27.3897 39.3195 28.1527V32.6442C39.3195 33.4011 38.9472 34.1021 38.271 34.4806L34.5115 36.7573C33.8974 37.1358 33.0909 37.1358 32.4147 36.7573L28.6552 34.5426C28.041 34.1642 27.6067 33.4693 27.6067 32.7063V29.7967L24.3374 31.7571V34.6667C24.3374 35.4235 24.7096 36.1246 25.3858 36.503L32.4767 40.6781C33.0909 41.0566 33.8974 41.0566 34.5736 40.6781L41.6645 36.503C42.2787 36.1246 42.7129 35.4297 42.7129 34.6667V26.2482C42.7129 25.4913 42.3407 24.7903 41.6645 24.4118L34.5115 20.1685V20.1747Z" fill="white"/>
</svg>
