<svg width="66" height="66" viewBox="0 0 54 52" fill="none" xmlns="http://www.w3.org/2000/svg">
<g clip-path="url(#clip0_1089_905)">
<path d="M27.1226 51.7556C41.6558 51.7556 53.19 40.1826 53.19 26.1135C53.19 11.8174 41.4251 0.471313 27.1226 0.471313C12.5894 0.471313 1.05518 12.0443 1.05518 26.1135C1.05518 40.1826 12.8201 51.7556 27.1226 51.7556Z" fill="#2C374B"/>
<path fill-rule="evenodd" clip-rule="evenodd" d="M41.425 16.8096C41.1943 16.5827 29.8907 10.0019 28.5066 9.54809C28.0452 9.32117 26.8918 9.09424 26.1997 9.32117C25.5077 9.54809 13.512 16.3557 13.0507 16.8096C12.82 17.0365 12.5893 17.4904 12.3586 17.7173C12.1279 18.1711 12.1279 18.398 12.1279 26.3403V34.5095L13.7427 35.4172C14.6655 35.871 15.3575 36.3249 15.3575 36.3249C15.5882 36.3249 26.4304 19.3057 26.4304 19.0788C26.4304 18.8519 23.8929 18.8519 23.2008 19.0788C22.2781 19.3057 21.586 19.7596 21.1247 20.2134C20.894 20.4403 19.5099 22.7096 17.6644 25.2057C16.0496 27.7018 14.6655 29.971 14.6655 29.971C14.6655 29.971 14.6655 27.7018 14.6655 24.5249V18.8519L14.8962 18.625C15.3575 18.1711 27.1225 11.5904 27.5838 11.5904C27.8145 11.5904 28.0452 11.5904 30.8134 13.1788C31.7362 13.6327 34.2737 14.9942 36.3499 16.3557C38.426 17.4904 40.2715 18.625 40.5022 18.8519L40.7329 19.0788V30.8787L34.9658 22.0288C34.7351 21.5749 34.5044 21.1211 34.2737 20.8942C34.2737 20.8942 34.043 21.348 32.6589 23.6172C32.4282 23.8442 32.1975 24.298 32.1975 24.5249L31.9669 24.9788L32.1975 25.2057L32.4282 25.4326C32.4282 25.4326 32.4282 25.6595 32.6589 25.6595L33.1203 26.3403C33.1203 26.3403 33.1203 26.5672 33.351 26.5672C33.5817 26.7941 33.8123 27.248 33.8123 27.4749C33.8123 27.4749 33.8123 27.4749 33.8123 27.7018L38.6567 35.4172L38.1954 35.6441C37.9647 35.871 37.734 35.871 37.5033 35.871L31.5055 26.7941L31.2748 26.5672L30.8134 27.4749L28.5066 31.1057L33.1203 38.3672C32.4282 38.821 28.5066 41.5441 28.2759 41.5441C28.0452 41.5441 22.7395 38.1402 22.9701 37.9133C22.9701 37.9133 24.5849 35.1903 26.4304 32.0133C28.0452 29.2903 30.1214 25.8865 31.5055 23.6172C33.1203 20.8942 33.8123 19.5326 33.8123 19.5326C33.8123 19.5326 32.6589 19.5326 31.2748 19.5326H28.968L23.6622 28.1557C21.8167 31.3326 19.9712 34.2826 19.0485 35.871C17.4337 36.0979 16.9723 36.5518 16.9723 36.5518L16.7416 37.0056L20.894 39.2748C23.2008 40.6364 25.277 41.771 25.7384 41.9979C26.4304 42.4517 27.5838 42.4517 28.0452 42.4517C28.5066 42.2248 40.5022 35.4172 41.1943 34.9633C41.425 34.7364 41.6556 34.5095 41.8863 34.0556L42.117 33.3749V25.8865V18.398L41.8863 17.9442C41.8863 17.4904 41.425 17.0365 41.425 16.8096Z" fill="white"/>
<path d="M40.2716 30.652L33.351 20.2136L30.8135 24.2982L37.5033 34.9635L40.5023 33.602L40.2716 30.652Z" fill="#24A2EE"/>
<path d="M37.042 36.325L30.1215 25.8866L27.1226 30.425L32.659 39.0481L36.1193 37.6865L37.042 36.325Z" fill="#24A2EE"/>
<path fill-rule="evenodd" clip-rule="evenodd" d="M14.4348 18.8519L27.1224 11.5904L39.8101 18.8519V33.3749L27.1224 40.6364L17.6643 35.4172L16.5109 37.4595L26.8918 43.3595C27.1224 43.5864 27.3531 43.5864 27.5838 43.3595L42.117 35.1903C42.3477 34.9634 42.5784 34.7364 42.5784 34.5095V18.1711C42.5784 17.9442 42.3477 17.7173 42.117 17.4904L27.5838 9.32119C27.3531 9.09427 27.1224 9.09427 26.8918 9.32119L12.3586 17.2635C12.1279 17.4904 11.8972 17.7173 11.8972 17.9442V34.2826C11.8972 34.5095 12.1279 34.7364 12.3586 34.9634L15.3575 36.5518L16.7416 34.5095L14.6654 33.3749V18.8519H14.4348Z" fill="#98BCDC"/>
<path d="M32.6592 18.8521H27.8148L16.5112 37.0058L20.4329 39.275L32.6592 18.8521Z" fill="white"/>
<path d="M20.4326 20.6673C21.586 18.852 24.8156 18.852 26.1997 19.0789L15.1268 36.5519C14.6654 36.325 13.7427 35.8711 13.0506 35.4173C12.1279 34.9634 11.8972 34.9634 11.8972 34.2827V33.375C14.4348 29.7442 19.2791 22.4827 20.4326 20.6673Z" fill="white"/>
</g>
<defs>
<clipPath id="clip0_1089_905">
<rect width="52.8125" height="52" fill="white" transform="translate(0.59375)"/>
</clipPath>
</defs>
</svg>
