<svg width="26" height="29" viewBox="0 0 26 29" fill="none" xmlns="http://www.w3.org/2000/svg">
<g clip-path="url(#clip0_3133_2991)">
<path d="M24.9742 6.46187L13.8023 0.224278C13.5411 0.077164 13.2476 0 12.9492 0C12.6508 0 12.3573 0.077164 12.0961 0.224278L0.924219 6.46187C0.644675 6.61785 0.411392 6.8476 0.248795 7.12706C0.0861985 7.40653 0.000267703 7.72544 0 8.05039V20.4324C0.000267703 20.7573 0.0861985 21.0762 0.248795 21.3557C0.411392 21.6352 0.644675 21.8649 0.924219 22.0209L12.0961 28.2585C12.3574 28.4054 12.6509 28.4824 12.9492 28.4824C13.2476 28.4824 13.5411 28.4054 13.8023 28.2585L24.9742 22.0209C25.2538 21.8649 25.487 21.6352 25.6496 21.3557C25.8122 21.0762 25.8982 20.7573 25.8984 20.4324V8.05039C25.8982 7.72544 25.8122 7.40653 25.6496 7.12706C25.487 6.8476 25.2538 6.61785 24.9742 6.46187ZM24.375 20.4324C24.3754 20.4782 24.3639 20.5233 24.3416 20.5631C24.3193 20.6029 24.287 20.636 24.248 20.6589L13.0762 26.8965C13.0388 26.9174 12.9969 26.9283 12.9543 26.9283C12.9117 26.9283 12.8698 26.9174 12.8324 26.8965L1.65039 20.6589C1.61146 20.636 1.57919 20.6029 1.55688 20.5631C1.53458 20.5233 1.52304 20.4782 1.52344 20.4324V8.05039C1.52304 8.00455 1.53458 7.95942 1.55688 7.91961C1.57919 7.87981 1.61146 7.84675 1.65039 7.82383L12.8223 1.58624C12.8596 1.56539 12.9015 1.55446 12.9441 1.55446C12.9867 1.55446 13.0286 1.56539 13.066 1.58624L24.2379 7.82383C24.2768 7.84675 24.3091 7.87981 24.3314 7.91961C24.3537 7.95942 24.3652 8.00455 24.3648 8.05039L24.375 20.4324Z" fill="#96BEDC"/>
<path d="M24.9742 6.46187L13.8023 0.224278C13.5411 0.077164 13.2476 0 12.9492 0C12.6508 0 12.3573 0.077164 12.0961 0.224278L0.924219 6.46187C0.644675 6.61785 0.411392 6.8476 0.248795 7.12706C0.0861985 7.40653 0.000267703 7.72544 0 8.05039V20.4324C0.000267703 20.7573 0.0861985 21.0762 0.248795 21.3557C0.411392 21.6352 0.644675 21.8649 0.924219 22.0209L12.0961 28.2585C12.3574 28.4054 12.6509 28.4824 12.9492 28.4824C13.2476 28.4824 13.5411 28.4054 13.8023 28.2585L24.9742 22.0209C25.2538 21.8649 25.487 21.6352 25.6496 21.3557C25.8122 21.0762 25.8982 20.7573 25.8984 20.4324V8.05039C25.8982 7.72544 25.8122 7.40653 25.6496 7.12706C25.487 6.8476 25.2538 6.61785 24.9742 6.46187ZM24.375 20.4324C24.3754 20.4782 24.3639 20.5233 24.3416 20.5631C24.3193 20.6029 24.287 20.636 24.248 20.6589L13.0762 26.8965C13.0388 26.9174 12.9969 26.9283 12.9543 26.9283C12.9117 26.9283 12.8698 26.9174 12.8324 26.8965L1.65039 20.6589C1.61146 20.636 1.57919 20.6029 1.55688 20.5631C1.53458 20.5233 1.52304 20.4782 1.52344 20.4324V8.05039C1.52304 8.00455 1.53458 7.95942 1.55688 7.91961C1.57919 7.87981 1.61146 7.84675 1.65039 7.82383L12.8223 1.58624C12.8596 1.56539 12.9015 1.55446 12.9441 1.55446C12.9867 1.55446 13.0286 1.56539 13.066 1.58624L24.2379 7.82383C24.2768 7.84675 24.3091 7.87981 24.3314 7.91961C24.3537 7.95942 24.3652 8.00455 24.3648 8.05039L24.375 20.4324Z" fill="white"/>
<path d="M24.375 20.4324C24.3754 20.4782 24.3639 20.5233 24.3416 20.5631C24.3193 20.6029 24.287 20.636 24.248 20.6589L13.0762 26.8965C13.0388 26.9174 12.9969 26.9283 12.9543 26.9283C12.9117 26.9283 12.8698 26.9174 12.8324 26.8965L1.65039 20.6589C1.61146 20.636 1.57919 20.6029 1.55688 20.5631C1.53458 20.5233 1.52304 20.4782 1.52344 20.4324V8.05039C1.52304 8.00455 1.53458 7.95942 1.55688 7.91961C1.57919 7.87981 1.61146 7.84675 1.65039 7.82383L12.8223 1.58624C12.8596 1.56539 12.9015 1.55446 12.9441 1.55446C12.9867 1.55446 13.0286 1.56539 13.066 1.58624L24.2379 7.82383C24.2768 7.84675 24.3091 7.87981 24.3314 7.91961C24.3537 7.95942 24.3652 8.00455 24.3648 8.05039L24.375 20.4324Z" fill="#96BEDC"/>
<path d="M24.375 20.4324C24.3754 20.4782 24.3639 20.5233 24.3416 20.5631C24.3193 20.6029 24.287 20.636 24.248 20.6589L13.0762 26.8965C13.0388 26.9174 12.9969 26.9283 12.9543 26.9283C12.9117 26.9283 12.8698 26.9174 12.8324 26.8965L1.65039 20.6589C1.61146 20.636 1.57919 20.6029 1.55688 20.5631C1.53458 20.5233 1.52304 20.4782 1.52344 20.4324V8.05039C1.52304 8.00455 1.53458 7.95942 1.55688 7.91961C1.57919 7.87981 1.61146 7.84675 1.65039 7.82383L12.8223 1.58624C12.8596 1.56539 12.9015 1.55446 12.9441 1.55446C12.9867 1.55446 13.0286 1.56539 13.066 1.58624L24.2379 7.82383C24.2768 7.84675 24.3091 7.87981 24.3314 7.91961C24.3537 7.95942 24.3652 8.00455 24.3648 8.05039L24.375 20.4324Z" fill="white"/>
<path d="M24.9742 6.46187L13.8023 0.224278C13.5411 0.077164 13.2476 0 12.9492 0C12.6508 0 12.3573 0.077164 12.0961 0.224278L0.924219 6.46187C0.644675 6.61785 0.411392 6.8476 0.248795 7.12706C0.0861985 7.40653 0.000267703 7.72544 0 8.05039V20.4324C0.000267703 20.7573 0.0861985 21.0762 0.248795 21.3557C0.411392 21.6352 0.644675 21.8649 0.924219 22.0209L12.0961 28.2585C12.3574 28.4054 12.6509 28.4824 12.9492 28.4824C13.2476 28.4824 13.5411 28.4054 13.8023 28.2585L24.9742 22.0209C25.2538 21.8649 25.487 21.6352 25.6496 21.3557C25.8122 21.0762 25.8982 20.7573 25.8984 20.4324V8.05039C25.8982 7.72544 25.8122 7.40653 25.6496 7.12706C25.487 6.8476 25.2538 6.61785 24.9742 6.46187ZM24.375 20.4324C24.3754 20.4782 24.3639 20.5233 24.3416 20.5631C24.3193 20.6029 24.287 20.636 24.248 20.6589L13.0762 26.8965C13.0388 26.9174 12.9969 26.9283 12.9543 26.9283C12.9117 26.9283 12.8698 26.9174 12.8324 26.8965L1.65039 20.6589C1.61146 20.636 1.57919 20.6029 1.55688 20.5631C1.53458 20.5233 1.52304 20.4782 1.52344 20.4324V8.05039C1.52304 8.00455 1.53458 7.95942 1.55688 7.91961C1.57919 7.87981 1.61146 7.84675 1.65039 7.82383L12.8223 1.58624C12.8596 1.56539 12.9015 1.55446 12.9441 1.55446C12.9867 1.55446 13.0286 1.56539 13.066 1.58624L24.2379 7.82383C24.2768 7.84675 24.3091 7.87981 24.3314 7.91961C24.3537 7.95942 24.3652 8.00455 24.3648 8.05039L24.375 20.4324Z" fill="#96BEDC"/>
<path d="M24.9742 6.46187L13.8023 0.224278C13.5411 0.077164 13.2476 0 12.9492 0C12.6508 0 12.3573 0.077164 12.0961 0.224278L0.924219 6.46187C0.644675 6.61785 0.411392 6.8476 0.248795 7.12706C0.0861985 7.40653 0.000267703 7.72544 0 8.05039V20.4324C0.000267703 20.7573 0.0861985 21.0762 0.248795 21.3557C0.411392 21.6352 0.644675 21.8649 0.924219 22.0209L12.0961 28.2585C12.3574 28.4054 12.6509 28.4824 12.9492 28.4824C13.2476 28.4824 13.5411 28.4054 13.8023 28.2585L24.9742 22.0209C25.2538 21.8649 25.487 21.6352 25.6496 21.3557C25.8122 21.0762 25.8982 20.7573 25.8984 20.4324V8.05039C25.8982 7.72544 25.8122 7.40653 25.6496 7.12706C25.487 6.8476 25.2538 6.61785 24.9742 6.46187ZM24.375 20.4324C24.3754 20.4782 24.3639 20.5233 24.3416 20.5631C24.3193 20.6029 24.287 20.636 24.248 20.6589L13.0762 26.8965C13.0388 26.9174 12.9969 26.9283 12.9543 26.9283C12.9117 26.9283 12.8698 26.9174 12.8324 26.8965L1.65039 20.6589C1.61146 20.636 1.57919 20.6029 1.55688 20.5631C1.53458 20.5233 1.52304 20.4782 1.52344 20.4324V8.05039C1.52304 8.00455 1.53458 7.95942 1.55688 7.91961C1.57919 7.87981 1.61146 7.84675 1.65039 7.82383L12.8223 1.58624C12.8596 1.56539 12.9015 1.55446 12.9441 1.55446C12.9867 1.55446 13.0286 1.56539 13.066 1.58624L24.2379 7.82383C24.2768 7.84675 24.3091 7.87981 24.3314 7.91961C24.3537 7.95942 24.3652 8.00455 24.3648 8.05039L24.375 20.4324Z" fill="#28A0F0"/>
<path d="M24.0307 7.40763L13.6962 1.72083C13.4546 1.58671 13.1831 1.51636 12.907 1.51636C12.631 1.51636 12.3595 1.58671 12.1179 1.72083L1.78341 7.40763C1.52482 7.54983 1.30902 7.75929 1.15861 8.01408C1.0082 8.26887 0.928714 8.55962 0.928467 8.85588V20.1445C0.928714 20.4408 1.0082 20.7315 1.15861 20.9863C1.30902 21.2411 1.52482 21.4505 1.78341 21.5927L12.1179 27.2795C12.3596 27.4135 12.6311 27.4837 12.907 27.4837C13.183 27.4837 13.4545 27.4135 13.6962 27.2795L24.0307 21.5927C24.2893 21.4505 24.5051 21.2411 24.6555 20.9863C24.8059 20.7315 24.8854 20.4408 24.8856 20.1445V8.85588C24.8854 8.55962 24.8059 8.26887 24.6555 8.01408C24.5051 7.75929 24.2893 7.54983 24.0307 7.40763ZM23.4764 20.1445C23.4767 20.1863 23.4661 20.2274 23.4454 20.2637C23.4248 20.3 23.3949 20.3301 23.3589 20.351L13.0245 26.0378C12.9899 26.0568 12.9511 26.0668 12.9117 26.0668C12.8723 26.0668 12.8336 26.0568 12.799 26.0378L2.45515 20.351C2.41913 20.3301 2.38928 20.3 2.36865 20.2637C2.34801 20.2274 2.33734 20.1863 2.33771 20.1445V8.85588C2.33734 8.81409 2.34801 8.77294 2.36865 8.73665C2.38928 8.70036 2.41913 8.67022 2.45515 8.64933L12.7896 2.96253C12.8242 2.94352 12.8629 2.93356 12.9023 2.93356C12.9417 2.93356 12.9805 2.94352 13.0151 2.96253L23.3495 8.64933C23.3855 8.67022 23.4154 8.70036 23.436 8.73665C23.4567 8.77294 23.4673 8.81409 23.467 8.85588L23.4764 20.1445Z" fill="#96BEDC"/>
<path d="M24.0307 7.40763L13.6962 1.72083C13.4546 1.58671 13.1831 1.51636 12.907 1.51636C12.631 1.51636 12.3595 1.58671 12.1179 1.72083L1.78341 7.40763C1.52482 7.54983 1.30902 7.75929 1.15861 8.01408C1.0082 8.26887 0.928714 8.55962 0.928467 8.85588V20.1445C0.928714 20.4408 1.0082 20.7315 1.15861 20.9863C1.30902 21.2411 1.52482 21.4505 1.78341 21.5927L12.1179 27.2795C12.3596 27.4135 12.6311 27.4837 12.907 27.4837C13.183 27.4837 13.4545 27.4135 13.6962 27.2795L24.0307 21.5927C24.2893 21.4505 24.5051 21.2411 24.6555 20.9863C24.8059 20.7315 24.8854 20.4408 24.8856 20.1445V8.85588C24.8854 8.55962 24.8059 8.26887 24.6555 8.01408C24.5051 7.75929 24.2893 7.54983 24.0307 7.40763ZM23.4764 20.1445C23.4767 20.1863 23.4661 20.2274 23.4454 20.2637C23.4248 20.3 23.3949 20.3301 23.3589 20.351L13.0245 26.0378C12.9899 26.0568 12.9511 26.0668 12.9117 26.0668C12.8723 26.0668 12.8336 26.0568 12.799 26.0378L2.45515 20.351C2.41913 20.3301 2.38928 20.3 2.36865 20.2637C2.34801 20.2274 2.33734 20.1863 2.33771 20.1445V8.85588C2.33734 8.81409 2.34801 8.77294 2.36865 8.73665C2.38928 8.70036 2.41913 8.67022 2.45515 8.64933L12.7896 2.96253C12.8242 2.94352 12.8629 2.93356 12.9023 2.93356C12.9417 2.93356 12.9805 2.94352 13.0151 2.96253L23.3495 8.64933C23.3855 8.67022 23.4154 8.70036 23.436 8.73665C23.4567 8.77294 23.4673 8.81409 23.467 8.85588L23.4764 20.1445Z" fill="#96BEDC"/>
<path d="M12.1647 17.5913C11.8496 18.063 11.4101 18.4157 10.846 18.6493C10.2819 18.8829 9.62527 18.9998 8.87606 19C8.11827 19 7.44563 18.8142 6.85815 18.4426C6.26526 18.0648 5.7913 17.5136 5.49487 16.8572C5.17346 16.1719 5.0085 15.3775 5 14.4741V13.6263C5 12.1622 5.32679 11.0274 5.98038 10.2219C6.63396 9.41638 7.55245 9.01363 8.73585 9.01363C9.7065 9.01363 10.4877 9.27284 11.0794 9.79128C11.6711 10.3097 12.033 11.0451 12.165 11.9975H10.9386C10.7088 10.7069 9.97653 10.0616 8.74192 10.0616C7.9203 10.0616 7.29769 10.3634 6.87408 10.9669C6.45048 11.5705 6.23656 12.4446 6.23232 13.5893V14.3843C6.23232 15.4755 6.47073 16.3429 6.94755 16.9865C7.42437 17.6301 8.06932 17.9519 8.88241 17.9519C9.28995 17.9591 9.69637 17.9053 10.0893 17.7921C10.4162 17.6969 10.712 17.5105 10.945 17.2527V15.0749H8.793V14.0268H12.1647V17.5913ZM13.71 15.1881C13.71 14.4805 13.8431 13.8441 14.1092 13.2789C14.3522 12.7407 14.7378 12.2867 15.2203 11.9706C15.7094 11.6593 16.273 11.4996 16.8455 11.51C17.7863 11.51 18.5473 11.8504 19.1284 12.5313C19.7095 13.2122 20 14.1179 20 15.2484V15.3352C20 16.0383 19.8712 16.6692 19.6136 17.2277C19.3739 17.7652 18.9902 18.2185 18.5089 18.5327C18.0299 18.8442 17.4797 19 16.8582 19C15.9217 19 15.1628 18.6596 14.5817 17.9787C14.0006 17.2978 13.71 16.3966 13.71 15.2751V15.1881ZM14.8976 15.3352C14.8976 16.1362 15.0753 16.7793 15.4308 17.2644C15.7862 17.7495 16.262 17.9921 16.858 17.9923C17.4583 17.9923 17.9351 17.7464 18.2884 17.2546C18.6418 16.7629 18.8184 16.0742 18.8184 15.1886C18.8184 14.3964 18.6386 13.7545 18.2788 13.2628C17.9191 12.771 17.4413 12.5251 16.8455 12.5249C16.5715 12.518 16.3 12.5806 16.0542 12.7074C15.8085 12.8342 15.5957 13.0213 15.4342 13.2527C15.0765 13.7376 14.8976 14.4318 14.8976 15.3352ZM14.7443 9.71122C14.739 9.52512 14.8018 9.34391 14.92 9.20462C15.0371 9.06821 15.2105 9 15.4404 9C15.6703 9 15.8448 9.06821 15.964 9.20462C16.084 9.34299 16.1481 9.52454 16.1428 9.71122C16.1484 9.89687 16.0842 10.0774 15.964 10.2142C15.8448 10.3483 15.6703 10.4154 15.4404 10.4154C15.2105 10.4154 15.0371 10.3483 14.92 10.2142C14.8017 10.0765 14.7388 9.89625 14.7445 9.71122H14.7443ZM17.4902 9.72455C17.4853 9.5376 17.548 9.35558 17.6659 9.21487C17.783 9.07624 17.9564 9.00693 18.1863 9.00693C18.4162 9.00693 18.5907 9.07624 18.7099 9.21487C18.8296 9.35469 18.8935 9.53706 18.8887 9.72461C18.8943 9.91026 18.8301 10.0908 18.7099 10.2276C18.5907 10.3617 18.4162 10.4288 18.1863 10.4288C17.9564 10.4288 17.783 10.3617 17.6659 10.2276C17.5475 10.0898 17.4846 9.90953 17.4904 9.72443L17.4902 9.72455Z" fill="#2D374B"/>
</g>
<defs>
<clipPath id="clip0_3133_2991">
<rect width="26" height="29" fill="white"/>
</clipPath>
</defs>
</svg>
