<svg width="19" height="19" viewBox="0 0 19 19" fill="none" xmlns="http://www.w3.org/2000/svg">
<path d="M9.5 19C14.7461 19 19 14.7461 19 9.5C19 4.2539 14.7461 0 9.5 0C4.2539 0 0 4.2539 0 9.5C0 14.7461 4.2539 19 9.5 19Z" fill="#232A32"/>
<path fill-rule="evenodd" clip-rule="evenodd" d="M9.51149 3.27344C8.82722 3.27344 8.2912 3.54715 7.93766 3.98052C7.59553 4.40249 7.44727 4.94991 7.44727 5.46311C7.44727 6.01053 7.66395 6.62638 7.99468 7.10537C8.32542 7.57296 8.83862 8.02914 9.50009 8.02914C10.1616 8.02914 10.6862 7.58436 11.0055 7.10537C11.3362 6.62638 11.5529 6.01053 11.5529 5.46311C11.5529 4.94991 11.4161 4.40249 11.0739 3.98052C10.7318 3.53574 10.1958 3.27344 9.51149 3.27344ZM8.38244 5.46311C8.38244 5.10957 8.48508 4.79024 8.65615 4.57356C8.82722 4.36828 9.07812 4.22002 9.50009 4.22002C9.93346 4.22002 10.1844 4.37968 10.344 4.57356C10.5151 4.79024 10.6177 5.10957 10.6177 5.46311C10.6177 5.79385 10.4809 6.22722 10.2414 6.56936C9.99048 6.9229 9.71677 7.08256 9.50009 7.08256C9.2834 7.08256 9.00969 6.9229 8.75879 6.56936C8.51929 6.22722 8.38244 5.79385 8.38244 5.46311Z" fill="url(#paint0_linear_1095_2131)"/>
<path d="M6.37538 10.1501C5.42881 10.0474 4.64189 10.8001 4.64189 11.5871C4.64189 12.3626 5.25774 13.0696 6.39819 13.0696C6.80876 13.0696 7.23073 12.8872 7.69831 12.5564C8.23433 12.1687 8.69051 11.7011 9.13529 11.2335C9.58007 10.7659 10.0362 10.3097 10.5837 9.91058C11.1197 9.52283 11.7355 9.2149 12.4312 9.2149C14.0164 9.2149 15.1341 10.2641 15.1341 11.6327C15.1341 13.0012 13.834 14.1645 12.3514 14.0048C11.7583 13.9364 11.0627 13.7425 10.5038 13.1951L11.1539 12.5222C11.5074 12.8644 11.975 13.024 12.454 13.0696C13.4006 13.1723 14.1875 12.4196 14.1875 11.6327C14.1875 10.8572 13.5717 10.1501 12.4312 10.1501C12.0206 10.1501 11.5987 10.3325 11.1311 10.6633C10.5951 11.051 10.1389 11.5186 9.69411 11.9862C9.24933 12.4538 8.79315 12.91 8.24573 13.3091C7.70972 13.6969 7.09387 14.0048 6.39819 14.0048C4.81296 14.0048 3.69531 12.9556 3.69531 11.5871C3.69531 10.2185 4.99543 9.05524 6.47803 9.2149C7.07106 9.28333 7.76674 9.47721 8.32556 10.0246L7.6755 10.6975C7.31056 10.3554 6.85438 10.1957 6.37538 10.1501Z" fill="url(#paint1_linear_1095_2131)"/>
<defs>
<linearGradient id="paint0_linear_1095_2131" x1="3.49622" y1="4.03365" x2="16.8347" y2="7.58687" gradientUnits="userSpaceOnUse">
<stop stop-color="#9488F0"/>
<stop offset="1" stop-color="#3AEAB5"/>
</linearGradient>
<linearGradient id="paint1_linear_1095_2131" x1="2.00618" y1="9.62736" x2="15.3447" y2="13.1806" gradientUnits="userSpaceOnUse">
<stop stop-color="#9488F0"/>
<stop offset="1" stop-color="#3AEAB5"/>
</linearGradient>
</defs>
</svg>
