<svg width="40" height="40" viewBox="0 0 40 40" fill="none" xmlns="http://www.w3.org/2000/svg">
<g clip-path="url(#clip0_3518_3381)">
<path d="M8.35164 13.9393L2.19795 10.8062C1.7166 11.7518 1.30667 12.7434 0.980469 13.7533L7.55128 15.8779C7.76602 15.2137 8.03467 14.5614 8.35164 13.9393Z" fill="white"/>
<path d="M13.5801 8.41749L16.9886 14.2902C17.4864 14.0015 18.0191 13.7795 18.5734 13.6305L16.8094 7.07313C17.2583 6.95241 17.7145 6.85275 18.1733 6.78032L17.0893 -0.0401611C16.0408 0.126272 14.999 0.377483 13.9921 0.705739L16.0999 7.16559C15.4295 7.38444 14.7766 7.65618 14.1478 7.97777L11.0496 1.93042C10.1075 2.41329 9.1962 2.97426 8.33984 3.59945L12.4109 9.17732C12.7859 8.90398 13.1784 8.65124 13.5801 8.41749Z" fill="white"/>
<path d="M31.8697 13.2833L25.999 16.6948C26.2882 17.192 26.5101 17.7253 26.6597 18.2786L33.2166 16.5114C33.3374 16.9604 33.437 17.416 33.5099 17.8743L40.3294 16.7883C40.1625 15.7404 39.9107 14.698 39.5815 13.6907L33.1226 15.8025C32.9032 15.1322 32.6315 14.4797 32.3094 13.8509L38.3547 10.7487C37.8718 9.80759 37.3098 8.89626 36.6847 8.04041L31.1084 12.1142C31.3821 12.4892 31.636 12.881 31.8697 13.2833Z" fill="white"/>
<path d="M29.4755 1.90283C28.5287 1.42201 27.5372 1.01258 26.5283 0.68689L24.4072 7.25874C25.0709 7.47296 25.7233 7.74213 26.3464 8.05858L29.4755 1.90283Z" fill="white"/>
<path d="M27.0236 8.29717L23.5762 14.2803C24.0755 14.568 24.5357 14.9204 24.9452 15.3282L34.6142 5.6264C33.8642 4.87895 33.0494 4.18494 32.1925 3.56335L28.2046 9.0631C27.8245 8.78775 27.4304 8.53193 27.0236 8.29717Z" fill="white"/>
<path d="M8.59205 13.2615L14.5736 16.7126C14.8613 16.2138 15.2147 15.7531 15.6232 15.3431L5.92541 5.67053C5.17745 6.42054 4.48292 7.23477 3.86133 8.09111L9.35902 12.0816C9.08367 12.4612 8.82682 12.8547 8.59205 13.2615Z" fill="white"/>
<path d="M22.3846 6.66431L23.4279 -0.0493271C22.3969 -0.209605 21.3418 -0.290771 20.2913 -0.290771H20.2754V13.4067H20.2913C20.8687 13.4067 21.4399 13.4807 21.9896 13.6266L23.7608 6.95197C23.3077 6.83177 22.8485 6.73674 22.3846 6.66431Z" fill="white"/>
<path d="M13.9179 18.2982L7.24429 16.5223C7.12357 16.9754 7.02802 17.4347 6.95559 17.8986L0.242983 16.8521C0.0816793 17.8868 0 18.946 0 19.9997H13.6974C13.6974 19.4212 13.7716 18.8484 13.9179 18.2982Z" fill="white"/>
<path d="M32.23 26.0621L38.3837 29.1952C38.865 28.2494 39.2749 27.258 39.6012 26.2481L33.0304 24.1233C32.8156 24.7875 32.547 25.44 32.23 26.0621Z" fill="white"/>
<path d="M27.003 31.5823L23.5945 25.7096C23.0968 25.9983 22.5641 26.2201 22.0098 26.3691L23.7739 32.9266C23.3243 33.0474 22.8687 33.147 22.41 33.2195L23.4933 40.0394C24.5419 39.8729 25.5837 39.6217 26.5905 39.2935L24.4828 32.8336C25.1537 32.6148 25.8061 32.343 26.4349 32.0215L29.533 38.0688C30.4751 37.5859 31.3864 37.0249 32.2428 36.3998L28.1717 30.8219C27.7967 31.0953 27.4048 31.3485 27.003 31.5823Z" fill="white"/>
<path d="M8.71362 26.7184L14.5848 23.3069C14.2956 22.8096 14.0736 22.2764 13.9241 21.7231L7.3672 23.4903C7.24648 23.0413 7.14682 22.5856 7.07388 22.1274L0.253906 23.2134C0.420862 24.2614 0.672577 25.3037 1.00186 26.311L7.4607 24.1991C7.68004 24.8696 7.9518 25.522 8.2739 26.1508L2.2286 29.253C2.71148 30.1941 3.27348 31.1055 3.89865 31.9613L9.47494 27.8876C9.20113 27.5126 8.94735 27.1206 8.71362 26.7184Z" fill="white"/>
<path d="M11.1064 38.098C12.0532 38.5789 13.0446 38.9883 14.0536 39.314L16.1747 32.7421C15.5109 32.5279 14.8586 32.2587 14.2354 31.9423L11.1064 38.098Z" fill="white"/>
<path d="M13.5583 31.7043L17.0058 25.7212C16.5065 25.4336 16.0462 25.0811 15.6367 24.6733L5.96777 34.3751C6.71778 35.1226 7.53253 35.8166 8.38938 36.4382L12.3773 30.9385C12.7575 31.2138 13.1514 31.4696 13.5583 31.7043Z" fill="white"/>
<path d="M31.9911 26.7398L26.0094 23.2888C25.7217 23.7876 25.3683 24.2484 24.96 24.6583L34.6572 34.3314C35.4052 33.5814 36.0996 32.7672 36.7213 31.9108L31.2235 27.9204C31.499 27.5407 31.7563 27.1467 31.9911 26.7398Z" fill="white"/>
<path d="M18.5935 26.3737L16.8223 33.0483C17.2754 33.1684 17.7346 33.2635 18.1985 33.336L17.1557 40.0495C18.1867 40.2099 19.2418 40.291 20.2924 40.291H20.3083V26.5935H20.2924C19.7149 26.5935 19.1432 26.5195 18.5935 26.3737Z" fill="white"/>
<path d="M26.8859 20.001C26.8859 20.5794 26.8115 21.1516 26.665 21.7023L33.3386 23.4782C33.4594 23.0251 33.5549 22.5659 33.6273 22.102L40.3405 23.149C40.5017 22.1143 40.5834 21.0551 40.5834 20.0014L26.8859 20.001Z" fill="white"/>
</g>
<defs>
<clipPath id="clip0_3518_3381">
<rect width="40" height="40" fill="white"/>
</clipPath>
</defs>
</svg>
