<svg width="66" height="49" viewBox="0 0 22 16" fill="none" xmlns="http://www.w3.org/2000/svg">
<path d="M0.000122264 8.25068C-0.0235245 12.7547 3.3863 16 7.27797 16C10.0913 16 11.6142 14.2488 12.4001 13.6778C12.9673 13.2654 13.4315 12.8935 14.1791 12.8935C15.3583 12.8935 16.0067 13.6852 17.5037 13.6852C20.0849 13.6852 22 11.2153 22 8.23625C22 5.25741 20.0849 2.8155 17.5037 2.8155C16.0067 2.8155 15.3583 3.60717 14.1791 3.60717C13.4315 3.60717 12.9673 3.2353 12.4001 2.82294C11.6142 2.25185 10.0913 0.500715 7.27797 0.500715C3.3863 0.500715 -0.0235245 3.74597 0.000122264 8.25019V8.25068ZM5.06635 8.25019C5.06635 6.20345 6.6583 4.64926 8.46922 4.64926C9.61738 4.64926 10.2852 5.07685 10.9555 5.50297C11.7049 5.97947 12.7036 6.61873 14.0785 6.61873C14.9275 6.61873 15.7471 6.26145 16.3593 5.93153C16.7815 5.70397 17.1097 5.51915 17.6064 5.51915C18.7896 5.51915 19.6679 6.77049 19.6679 8.25019C19.6679 9.73005 18.7896 10.9812 17.6064 10.9812C17.1097 10.9812 16.7815 10.7964 16.3593 10.5689C15.7471 10.239 14.9275 9.88165 14.0785 9.88165C12.7036 9.88165 11.7049 10.5211 10.9555 10.9974C10.2852 11.4237 9.61738 11.8511 8.46922 11.8511C6.6583 11.8511 5.06635 10.2971 5.06635 8.25019Z" fill="url(#paint0_linear_14_229)"/>
<defs>
<linearGradient id="paint0_linear_14_229" x1="8.17732e-05" y1="8.25083" x2="21.9999" y2="8.25083" gradientUnits="userSpaceOnUse">
<stop stop-color="#31EDA9"/>
<stop offset="0.189558" stop-color="#FFF200"/>
<stop offset="0.248804" stop-color="#FFF200"/>
<stop offset="0.47628" stop-color="#F6029C"/>
<stop offset="0.499148" stop-color="#F6029C"/>
<stop offset="0.702878" stop-color="#197CD8"/>
<stop offset="1" stop-color="#197CD8"/>
</linearGradient>
</defs>
</svg>
