<svg width="66" height="66" viewBox="0 0 32 32" fill="none" xmlns="http://www.w3.org/2000/svg">
<circle cx="16" cy="16" r="16" fill="white"/>
<path opacity="0.4" d="M23.3236 21.9353L16.0704 26.113L8.81836 21.9353V11.4172L16.0704 7.2395L23.3236 11.4172V21.9353Z" fill="#72A8DA"/>
<path d="M11.4938 23.7966L11.7214 13.1943L16.0941 15.4513L15.834 26.0222L11.4938 23.7966Z" fill="#C56728"/>
<path d="M20.4904 23.6653L20.4187 12.9868L16.0459 15.2438L16.1513 25.8909L20.4904 23.6653Z" fill="#F2A91E"/>
<path d="M15.927 10.2354L11.885 12.7559L16.4046 15.1463L20.1865 12.8433L15.927 10.2354Z" fill="#EB8523"/>
<path d="M16.0704 28C21.2751 28 25.4943 27.5738 25.4943 27.0481C25.4943 26.5224 21.2751 26.0962 16.0704 26.0962C10.8658 26.0962 6.64661 26.5224 6.64661 27.0481C6.64661 27.5738 10.8658 28 16.0704 28Z" fill="#1A1F28"/>
<path fill-rule="evenodd" clip-rule="evenodd" d="M16.0846 5.74918L8.2643 10.2643L11.8323 12.3242L16.069 9.87816L16.0749 9.88848L16.0758 9.887L20.2873 12.3185L23.8752 10.247L16.0846 5.74918ZM12.9893 12.9922L16.0647 11.2166L19.1302 12.9865L16.0548 14.7621L12.9893 12.9922ZM16.0598 4.02155L6.10088 9.77131H6.03416V9.80983L6.03416 9.80983L6.03416 9.80984V21.3295L6 21.3887L15.8627 27.0829L16.0548 26.7501L16.2585 27.103L26.131 21.4032L26.1029 21.3545H26.1712V9.77131H26.0684L16.0722 4L16.0598 4.02155ZM24.6626 11.1285L21.0757 13.1993V22.6206L24.6626 20.5498V11.1285ZM11.1252 22.6734L7.54277 20.6051V11.1837L11.1252 13.252V22.6734ZM15.4062 21.4456V19.3344L12.2822 17.5308V19.6419L15.4062 21.4456ZM15.4062 22.7816L12.2822 20.978V23.3414L15.4062 25.1451V22.7816ZM19.9187 23.2887L16.5632 25.2259V22.8625L19.9187 20.9253V23.2887ZM12.2822 13.92V16.1948L15.4062 17.9984V15.7237L12.2822 13.92ZM19.9187 19.5892V17.4781L16.5632 19.4154V21.5265L19.9187 19.5892ZM19.9187 13.8674L16.5632 15.8046V18.0793L19.9187 16.1421V13.8674Z" fill="#1A1F28"/>
</svg>
