<svg width="77" height="80" viewBox="0 0 77 80" fill="none" xmlns="http://www.w3.org/2000/svg">
<path d="M16.8526 50.8382C22.669 56.6907 34.1574 57.4802 37.734 62.8994C41.3106 57.4802 52.7991 56.6907 58.6155 50.8382C63.2688 46.156 64.4561 41.0114 64.468 39.0246C63.4566 39.0967 61.2239 38.5259 60.3858 35.6647C59.3381 32.0881 57.3511 29.0534 56.1227 27.7529C54.8945 26.4523 54.461 25.9465 54.5331 24.2124C54.6054 22.4783 53.6661 21.1055 53.0158 19.4436C52.4955 18.1142 51.9079 15.9273 51.679 15C50.0655 15.7466 46.5491 17.565 45.3931 18.8656C44.237 20.1662 43.8274 21.0694 43.7672 21.3584C41.5274 20.8165 40.2629 21.4306 39.3959 20.5636C38.5289 19.6965 37.734 18.8656 37.734 18.8656C37.734 18.8656 36.9393 19.6965 36.0721 20.5636C35.2051 21.4306 33.9406 20.8165 31.7008 21.3584C31.6406 21.0694 31.2313 20.1662 30.0752 18.8656C28.919 17.565 25.4027 15.7466 23.789 15C23.5602 15.9273 22.9725 18.1142 22.4523 19.4436C21.802 21.1055 20.8627 22.4783 20.935 24.2124C21.0072 25.9465 20.5737 26.4523 19.3453 27.7529C18.117 29.0534 16.13 32.0881 15.0824 35.6647C14.2442 38.5259 12.0116 39.0967 11 39.0246C11.012 41.0114 12.1994 46.156 16.8526 50.8382Z" fill="url(#paint0_linear_2317_1740)"/>
<mask id="mask0_2317_1740" style="mask-type:alpha" maskUnits="userSpaceOnUse" x="11" y="15" width="54" height="50">
<path d="M16.8526 50.838C22.669 56.6907 34.1574 59.5808 37.734 65C41.3106 59.5808 52.7991 56.6907 58.6155 50.838C63.2688 46.156 64.4561 41.0114 64.468 39.0246C63.4566 39.0967 61.2239 38.5259 60.3858 35.6647C59.3381 32.0881 57.3511 29.0534 56.1227 27.7529C54.8945 26.4523 54.461 25.9465 54.5331 24.2124C54.6054 22.4783 53.6661 21.1055 53.0158 19.4436C52.4955 18.1142 51.9079 15.9273 51.679 15C50.0655 15.7466 46.5491 17.565 45.3931 18.8656C44.237 20.1662 43.8274 21.0694 43.7672 21.3584C41.5274 20.8165 40.2629 21.4306 39.3959 20.5636C38.5289 19.6965 37.734 18.8656 37.734 18.8656C37.734 18.8656 36.9393 19.6965 36.0721 20.5636C35.2051 21.4306 33.9406 20.8165 31.7008 21.3584C31.6406 21.0694 31.2313 20.1662 30.0752 18.8656C28.919 17.565 25.4027 15.7466 23.789 15C23.5602 15.9273 22.9725 18.1142 22.4523 19.4436C21.802 21.1055 20.8627 22.4783 20.935 24.2124C21.0072 25.9465 20.5737 26.4523 19.3453 27.7529C18.117 29.0534 16.13 32.0881 15.0824 35.6647C14.2442 38.5259 12.0116 39.0967 11 39.0246C11.012 41.0114 12.1994 46.156 16.8526 50.838Z" fill="url(#paint1_linear_2317_1740)"/>
</mask>
<g mask="url(#mask0_2317_1740)">
<path d="M16.8526 50.8372C22.669 56.6897 34.1574 57.4792 37.734 62.8984C41.3106 57.4792 52.7991 56.6897 58.6155 50.8372C63.2688 46.1551 64.4561 41.0104 64.468 39.0236C63.4566 39.0957 61.2239 38.5249 60.3858 35.6637C59.3381 32.0872 57.3511 29.0525 56.1227 27.7519C54.8945 26.4513 54.461 25.9455 54.5331 24.2114C54.6054 22.4773 53.6661 21.1045 53.0158 19.4427C52.4955 18.1132 51.9079 15.9263 51.679 14.999C50.0655 15.7456 46.5491 17.564 45.3931 18.8646C44.237 20.1652 43.8274 21.0684 43.7672 21.3574C41.5274 20.8155 40.2629 21.4296 39.3959 20.5626C38.5289 19.6956 37.734 18.8646 37.734 18.8646C37.734 18.8646 36.9393 19.6956 36.0721 20.5626C35.2051 21.4296 33.9406 20.8155 31.7008 21.3574C31.6406 21.0684 31.2313 20.1652 30.0752 18.8646C28.919 17.564 25.4027 15.7456 23.789 14.999C23.5602 15.9263 22.9725 18.1132 22.4523 19.4427C21.802 21.1045 20.8627 22.4773 20.935 24.2114C21.0072 25.9455 20.5737 26.4513 19.3453 27.7519C18.117 29.0525 16.13 32.0872 15.0824 35.6637C14.2442 38.5249 12.0116 39.0957 11 39.0236C11.012 41.0104 12.1994 46.1551 16.8526 50.8372Z" fill="url(#paint2_linear_2317_1740)"/>
<path d="M48.3422 22.8128C45.82 19.66 50.4089 18.4689 51.7052 14.9658L54.3676 18.574L54.7178 24.5294C53.4335 25.0081 50.3601 25.3351 48.3422 22.8128Z" fill="url(#paint3_linear_2317_1740)"/>
<path d="M27.1726 22.8128C29.6949 19.66 25.1058 18.4689 23.8097 14.9658L21.1472 18.574L20.7969 24.5294C22.0814 25.0081 25.1548 25.3351 27.1726 22.8128Z" fill="url(#paint4_linear_2317_1740)"/>
</g>
<mask id="mask1_2317_1740" style="mask-type:alpha" maskUnits="userSpaceOnUse" x="21" y="35" width="33" height="19">
<path d="M37.2338 53.4063C22.4218 53.4063 20.3624 42.4237 21.5544 35.5234C21.7353 39.8587 26.0489 44.23 31.309 44.23C34.8927 44.23 36.7401 42.3997 37.1617 41.4843C36.4631 40.8583 35.1747 39.4323 35.1747 38.7387C35.1747 37.8717 36.4391 37.944 37.2338 37.944C38.0287 37.944 39.3292 37.8717 39.3292 38.7387C39.3292 39.4323 38.0408 40.8583 37.3422 41.4843C37.7638 42.3997 39.6109 44.23 43.1949 44.23C48.455 44.23 52.7684 39.8587 52.9494 35.5234C54.1412 42.4237 52.0461 53.4063 37.2338 53.4063Z" fill="#262626"/>
</mask>
<g mask="url(#mask1_2317_1740)">
<path d="M37.2318 53.4063C22.4198 53.4063 20.3605 42.4237 21.5524 35.5234C21.7334 39.8587 26.0469 44.23 31.307 44.23C34.8908 44.23 36.7381 42.3997 37.1598 41.4843C36.4611 40.8583 35.1727 39.4323 35.1727 38.7387C35.1727 37.8717 36.4372 37.944 37.2318 37.944C38.0268 37.944 39.3273 37.8717 39.3273 38.7387C39.3273 39.4323 38.0388 40.8583 37.3402 41.4843C37.7619 42.3997 39.609 44.23 43.1929 44.23C48.453 44.23 52.7665 39.8587 52.9474 35.5234C54.1393 42.4237 52.0441 53.4063 37.2318 53.4063Z" fill="#262626"/>
<g style="mix-blend-mode:multiply" opacity="0.79">
<path d="M29.9346 41.8044L19.6003 32.9766L17.6035 37.6707L25.0652 52.419L39.9885 55.2215L55.8578 47.3744L56.3833 36.5146L53.2653 33.9574L42.826 41.8044L37.186 41.4541L29.9346 41.8044Z" fill="url(#paint5_linear_2317_1740)"/>
</g>
<path opacity="0.79" d="M29.9346 41.8044L19.6003 32.9766L17.6035 37.6707L25.0652 52.419L39.9885 55.2215L55.8578 47.3744L56.3833 36.5146L53.2653 33.9574L42.826 41.8044L37.186 41.4541L29.9346 41.8044Z" fill="url(#paint6_linear_2317_1740)"/>
</g>
<g filter="url(#filter0_d_2317_1740)">
<path d="M28.6683 38.1584C26.2839 37.1827 25.8504 35.7016 24.875 34.9791C25.4241 34.8635 25.7059 34.5456 25.7782 34.4011C26.6814 32.6308 29.4632 29.7045 31.3779 30.7161C33.2927 31.7277 33.4371 34.9791 33.0759 36.4604C32.7868 37.6452 32.9554 38.5437 33.0759 38.8446C31.7391 38.5195 30.9103 39.0754 28.6683 38.1584Z" fill="#262626"/>
<path d="M28.6683 38.1584C26.2839 37.1827 25.8504 35.7016 24.875 34.9791C25.4241 34.8635 25.7059 34.5456 25.7782 34.4011C26.6814 32.6308 29.4632 29.7045 31.3779 30.7161C33.2927 31.7277 33.4371 34.9791 33.0759 36.4604C32.7868 37.6452 32.9554 38.5437 33.0759 38.8446C31.7391 38.5195 30.9103 39.0754 28.6683 38.1584Z" fill="url(#paint7_linear_2317_1740)"/>
</g>
<mask id="mask2_2317_1740" style="mask-type:alpha" maskUnits="userSpaceOnUse" x="24" y="30" width="10" height="9">
<path d="M28.6664 38.1584C26.282 37.1827 25.8485 35.7016 24.873 34.9791C25.4222 34.8635 25.704 34.5456 25.7762 34.4011C26.6794 32.6308 29.4612 29.7045 31.376 30.7161C33.2907 31.7277 33.4351 34.9791 33.074 36.4604C32.7849 37.6452 32.9535 38.5437 33.074 38.8446C31.7372 38.5195 30.9083 39.0754 28.6664 38.1584Z" fill="#262626"/>
<path d="M28.6664 38.1584C26.282 37.1827 25.8485 35.7016 24.873 34.9791C25.4222 34.8635 25.704 34.5456 25.7762 34.4011C26.6794 32.6308 29.4612 29.7045 31.376 30.7161C33.2907 31.7277 33.4351 34.9791 33.074 36.4604C32.7849 37.6452 32.9535 38.5437 33.074 38.8446C31.7372 38.5195 30.9083 39.0754 28.6664 38.1584Z" fill="url(#paint8_linear_2317_1740)"/>
</mask>
<g mask="url(#mask2_2317_1740)">
<g filter="url(#filter1_dd_2317_1740)">
<path d="M28.6664 38.1584C26.282 37.1827 25.8485 35.7016 24.873 34.9791C25.4222 34.8635 25.704 34.5456 25.7762 34.4011C26.6794 32.6308 29.4612 29.7045 31.376 30.7161C33.2907 31.7277 33.4351 34.9791 33.074 36.4604C32.7849 37.6452 32.9535 38.5437 33.074 38.8446C31.7372 38.5195 30.9083 39.0754 28.6664 38.1584Z" fill="#262626"/>
<path d="M28.6664 38.1584C26.282 37.1827 25.8485 35.7016 24.873 34.9791C25.4222 34.8635 25.704 34.5456 25.7762 34.4011C26.6794 32.6308 29.4612 29.7045 31.376 30.7161C33.2907 31.7277 33.4351 34.9791 33.074 36.4604C32.7849 37.6452 32.9535 38.5437 33.074 38.8446C31.7372 38.5195 30.9083 39.0754 28.6664 38.1584Z" fill="url(#paint9_linear_2317_1740)"/>
</g>
<path d="M30.1733 37.5076C30.5186 37.553 30.9316 36.5791 31.0957 35.3323C31.2599 34.0855 31.113 33.0379 30.7677 32.9925C30.4225 32.947 30.0095 33.9209 29.8454 35.1677C29.6812 36.4145 29.8281 37.4621 30.1733 37.5076Z" fill="url(#paint10_linear_2317_1740)"/>
<path d="M30.1733 37.5076C30.5186 37.553 30.9316 36.5791 31.0957 35.3323C31.2599 34.0855 31.113 33.0379 30.7677 32.9925C30.4225 32.947 30.0095 33.9209 29.8454 35.1677C29.6812 36.4145 29.8281 37.4621 30.1733 37.5076Z" fill="url(#paint11_linear_2317_1740)"/>
<path d="M29.0284 33.8136C29.4734 33.8136 29.8341 33.4529 29.8341 33.0079C29.8341 32.5629 29.4734 32.2021 29.0284 32.2021C28.5834 32.2021 28.2227 32.5629 28.2227 33.0079C28.2227 33.4529 28.5834 33.8136 29.0284 33.8136Z" fill="url(#paint12_linear_2317_1740)"/>
<path d="M28.5255 34.8644C28.8157 34.8644 29.0509 34.6292 29.0509 34.3389C29.0509 34.0487 28.8157 33.8135 28.5255 33.8135C28.2353 33.8135 28 34.0487 28 34.3389C28 34.6292 28.2353 34.8644 28.5255 34.8644Z" fill="url(#paint13_linear_2317_1740)"/>
<g style="mix-blend-mode:color-dodge" filter="url(#filter2_f_2317_1740)">
<path d="M32.9581 35.8117C36.1398 35.8117 38.719 33.2325 38.719 30.0509C38.719 26.8693 36.1398 24.29 32.9581 24.29C29.7765 24.29 27.1973 26.8693 27.1973 30.0509C27.1973 33.2325 29.7765 35.8117 32.9581 35.8117Z" fill="#2D2D2D"/>
</g>
<g style="mix-blend-mode:color-dodge" filter="url(#filter3_f_2317_1740)">
<path d="M30.0057 37.9723C31.5567 37.9723 32.8141 36.7149 32.8141 35.1639C32.8141 33.6128 31.5567 32.3555 30.0057 32.3555C28.4546 32.3555 27.1973 33.6128 27.1973 35.1639C27.1973 36.7149 28.4546 37.9723 30.0057 37.9723Z" fill="#343434"/>
</g>
</g>
<g filter="url(#filter4_d_2317_1740)">
<path d="M45.8108 38.1574C48.1952 37.1818 48.6287 35.7007 49.6041 34.9781C49.0549 34.8625 48.7732 34.5446 48.7011 34.4001C47.7978 32.6298 45.0161 29.7036 43.1011 30.7151C41.1864 31.7267 41.042 34.9781 41.4032 36.4592C41.6923 37.6442 41.5237 38.5428 41.4032 38.8437C42.74 38.5186 43.5688 39.0744 45.8108 38.1574Z" fill="url(#paint14_linear_2317_1740)"/>
</g>
<mask id="mask3_2317_1740" style="mask-type:alpha" maskUnits="userSpaceOnUse" x="41" y="30" width="9" height="9">
<path d="M45.8127 38.1574C48.1972 37.1818 48.6307 35.7007 49.6061 34.9781C49.0568 34.8625 48.7751 34.5446 48.703 34.4001C47.7997 32.6298 45.018 29.7036 43.1031 30.7151C41.1884 31.7267 41.044 34.9781 41.4051 36.4592C41.6942 37.6442 41.5256 38.5428 41.4051 38.8437C42.7419 38.5186 43.5707 39.0744 45.8127 38.1574Z" fill="url(#paint15_linear_2317_1740)"/>
</mask>
<g mask="url(#mask3_2317_1740)">
<g filter="url(#filter5_dd_2317_1740)">
<path d="M45.8127 38.1574C48.1972 37.1818 48.6307 35.7007 49.6061 34.9781C49.0568 34.8625 48.7751 34.5446 48.703 34.4001C47.7997 32.6298 45.018 29.7036 43.1031 30.7151C41.1884 31.7267 41.044 34.9781 41.4051 36.4592C41.6942 37.6442 41.5256 38.5428 41.4051 38.8437C42.7419 38.5186 43.5707 39.0744 45.8127 38.1574Z" fill="url(#paint16_linear_2317_1740)"/>
</g>
<path d="M44.1548 37.5066C43.8095 37.5521 43.3966 36.5782 43.2324 35.3313C43.0683 34.0845 43.2151 33.0369 43.5604 32.9915C43.9056 32.946 44.3186 33.9199 44.4828 35.1667C44.6469 36.4136 44.5001 37.4611 44.1548 37.5066Z" fill="url(#paint17_linear_2317_1740)"/>
<path d="M43.4659 33.8126C43.9109 33.8126 44.2716 33.4519 44.2716 33.0069C44.2716 32.5619 43.9109 32.2012 43.4659 32.2012C43.0209 32.2012 42.6602 32.5619 42.6602 33.0069C42.6602 33.4519 43.0209 33.8126 43.4659 33.8126Z" fill="url(#paint18_linear_2317_1740)"/>
<path d="M42.9825 34.8634C43.2727 34.8634 43.508 34.6282 43.508 34.338C43.508 34.0478 43.2727 33.8125 42.9825 33.8125C42.6923 33.8125 42.457 34.0478 42.457 34.338C42.457 34.6282 42.6923 34.8634 42.9825 34.8634Z" fill="url(#paint19_linear_2317_1740)"/>
<g style="mix-blend-mode:color-dodge" filter="url(#filter6_f_2317_1740)">
<path d="M45.4425 35.9553C48.6241 35.9553 51.2034 33.3761 51.2034 30.1944C51.2034 27.0128 48.6241 24.4336 45.4425 24.4336C42.2609 24.4336 39.6816 27.0128 39.6816 30.1944C39.6816 33.3761 42.2609 35.9553 45.4425 35.9553Z" fill="#2D2D2D"/>
</g>
<g style="mix-blend-mode:color-dodge" filter="url(#filter7_f_2317_1740)">
<path d="M44.4959 37.9713C46.0469 37.9713 47.3043 36.7139 47.3043 35.1629C47.3043 33.6119 46.0469 32.3545 44.4959 32.3545C42.9449 32.3545 41.6875 33.6119 41.6875 35.1629C41.6875 36.7139 42.9449 37.9713 44.4959 37.9713Z" fill="#343434"/>
</g>
</g>
<defs>
<filter id="filter0_d_2317_1740" x="16.875" y="20.5088" width="26.3574" height="26.3359" filterUnits="userSpaceOnUse" color-interpolation-filters="sRGB">
<feFlood flood-opacity="0" result="BackgroundImageFix"/>
<feColorMatrix in="SourceAlpha" type="matrix" values="0 0 0 0 0 0 0 0 0 0 0 0 0 0 0 0 0 0 127 0" result="hardAlpha"/>
<feOffset dx="1" dy="-1"/>
<feGaussianBlur stdDeviation="4.5"/>
<feComposite in2="hardAlpha" operator="out"/>
<feColorMatrix type="matrix" values="0 0 0 0 0.439216 0 0 0 0 0 0 0 0 0 1 0 0 0 0.57 0"/>
<feBlend mode="normal" in2="BackgroundImageFix" result="effect1_dropShadow_2317_1740"/>
<feBlend mode="normal" in="SourceGraphic" in2="effect1_dropShadow_2317_1740" result="shape"/>
</filter>
<filter id="filter1_dd_2317_1740" x="-10.127" y="-11.4912" width="88.3574" height="88.3359" filterUnits="userSpaceOnUse" color-interpolation-filters="sRGB">
<feFlood flood-opacity="0" result="BackgroundImageFix"/>
<feColorMatrix in="SourceAlpha" type="matrix" values="0 0 0 0 0 0 0 0 0 0 0 0 0 0 0 0 0 0 127 0" result="hardAlpha"/>
<feOffset dx="5" dy="-2"/>
<feGaussianBlur stdDeviation="20"/>
<feComposite in2="hardAlpha" operator="out"/>
<feColorMatrix type="matrix" values="0 0 0 0 0.439216 0 0 0 0 0 0 0 0 0 1 0 0 0 0.57 0"/>
<feBlend mode="normal" in2="BackgroundImageFix" result="effect1_dropShadow_2317_1740"/>
<feColorMatrix in="SourceAlpha" type="matrix" values="0 0 0 0 0 0 0 0 0 0 0 0 0 0 0 0 0 0 127 0" result="hardAlpha"/>
<feOffset dy="3"/>
<feGaussianBlur stdDeviation="2"/>
<feComposite in2="hardAlpha" operator="out"/>
<feColorMatrix type="matrix" values="0 0 0 0 0 0 0 0 0 0 0 0 0 0 0 0 0 0 0.4 0"/>
<feBlend mode="normal" in2="effect1_dropShadow_2317_1740" result="effect2_dropShadow_2317_1740"/>
<feBlend mode="normal" in="SourceGraphic" in2="effect2_dropShadow_2317_1740" result="shape"/>
</filter>
<filter id="filter2_f_2317_1740" x="8.19727" y="5.29004" width="49.5215" height="49.5215" filterUnits="userSpaceOnUse" color-interpolation-filters="sRGB">
<feFlood flood-opacity="0" result="BackgroundImageFix"/>
<feBlend mode="normal" in="SourceGraphic" in2="BackgroundImageFix" result="shape"/>
<feGaussianBlur stdDeviation="9.5" result="effect1_foregroundBlur_2317_1740"/>
</filter>
<filter id="filter3_f_2317_1740" x="24.1973" y="29.3555" width="11.6172" height="11.6172" filterUnits="userSpaceOnUse" color-interpolation-filters="sRGB">
<feFlood flood-opacity="0" result="BackgroundImageFix"/>
<feBlend mode="normal" in="SourceGraphic" in2="BackgroundImageFix" result="shape"/>
<feGaussianBlur stdDeviation="1.5" result="effect1_foregroundBlur_2317_1740"/>
</filter>
<filter id="filter4_d_2317_1740" x="33.2461" y="20.5078" width="26.3574" height="26.3359" filterUnits="userSpaceOnUse" color-interpolation-filters="sRGB">
<feFlood flood-opacity="0" result="BackgroundImageFix"/>
<feColorMatrix in="SourceAlpha" type="matrix" values="0 0 0 0 0 0 0 0 0 0 0 0 0 0 0 0 0 0 127 0" result="hardAlpha"/>
<feOffset dx="1" dy="-1"/>
<feGaussianBlur stdDeviation="4.5"/>
<feComposite in2="hardAlpha" operator="out"/>
<feColorMatrix type="matrix" values="0 0 0 0 0.439216 0 0 0 0 0 0 0 0 0 1 0 0 0 0.57 0"/>
<feBlend mode="normal" in2="BackgroundImageFix" result="effect1_dropShadow_2317_1740"/>
<feBlend mode="normal" in="SourceGraphic" in2="effect1_dropShadow_2317_1740" result="shape"/>
</filter>
<filter id="filter5_dd_2317_1740" x="6.24805" y="-11.4922" width="88.3574" height="88.3359" filterUnits="userSpaceOnUse" color-interpolation-filters="sRGB">
<feFlood flood-opacity="0" result="BackgroundImageFix"/>
<feColorMatrix in="SourceAlpha" type="matrix" values="0 0 0 0 0 0 0 0 0 0 0 0 0 0 0 0 0 0 127 0" result="hardAlpha"/>
<feOffset dx="5" dy="-2"/>
<feGaussianBlur stdDeviation="20"/>
<feComposite in2="hardAlpha" operator="out"/>
<feColorMatrix type="matrix" values="0 0 0 0 0.439216 0 0 0 0 0 0 0 0 0 1 0 0 0 0.57 0"/>
<feBlend mode="normal" in2="BackgroundImageFix" result="effect1_dropShadow_2317_1740"/>
<feColorMatrix in="SourceAlpha" type="matrix" values="0 0 0 0 0 0 0 0 0 0 0 0 0 0 0 0 0 0 127 0" result="hardAlpha"/>
<feOffset dy="3"/>
<feGaussianBlur stdDeviation="2"/>
<feComposite in2="hardAlpha" operator="out"/>
<feColorMatrix type="matrix" values="0 0 0 0 0 0 0 0 0 0 0 0 0 0 0 0 0 0 0.4 0"/>
<feBlend mode="normal" in2="effect1_dropShadow_2317_1740" result="effect2_dropShadow_2317_1740"/>
<feBlend mode="normal" in="SourceGraphic" in2="effect2_dropShadow_2317_1740" result="shape"/>
</filter>
<filter id="filter6_f_2317_1740" x="20.6816" y="5.43359" width="49.5215" height="49.5215" filterUnits="userSpaceOnUse" color-interpolation-filters="sRGB">
<feFlood flood-opacity="0" result="BackgroundImageFix"/>
<feBlend mode="normal" in="SourceGraphic" in2="BackgroundImageFix" result="shape"/>
<feGaussianBlur stdDeviation="9.5" result="effect1_foregroundBlur_2317_1740"/>
</filter>
<filter id="filter7_f_2317_1740" x="38.6875" y="29.3545" width="11.6172" height="11.6172" filterUnits="userSpaceOnUse" color-interpolation-filters="sRGB">
<feFlood flood-opacity="0" result="BackgroundImageFix"/>
<feBlend mode="normal" in="SourceGraphic" in2="BackgroundImageFix" result="shape"/>
<feGaussianBlur stdDeviation="1.5" result="effect1_foregroundBlur_2317_1740"/>
</filter>
<linearGradient id="paint0_linear_2317_1740" x1="52.0765" y1="38.6122" x2="26.5736" y2="54.5517" gradientUnits="userSpaceOnUse">
<stop stop-color="#33D0DA"/>
<stop offset="1" stop-color="#00499E"/>
</linearGradient>
<linearGradient id="paint1_linear_2317_1740" x1="52.0765" y1="38.6122" x2="26.5736" y2="54.5517" gradientUnits="userSpaceOnUse">
<stop stop-color="#D9D9D9"/>
<stop offset="1" stop-color="#9E9E9E"/>
</linearGradient>
<linearGradient id="paint2_linear_2317_1740" x1="52.4849" y1="37.3722" x2="8.61746" y2="72.2106" gradientUnits="userSpaceOnUse">
<stop stop-color="#33D0DA"/>
<stop offset="1" stop-color="#00499E"/>
</linearGradient>
<linearGradient id="paint3_linear_2317_1740" x1="51.1578" y1="24.8446" x2="51.1578" y2="17.3129" gradientUnits="userSpaceOnUse">
<stop stop-color="#9BE7FF"/>
<stop offset="1" stop-color="#00728B"/>
</linearGradient>
<linearGradient id="paint4_linear_2317_1740" x1="18.5898" y1="16.8925" x2="26.612" y2="22.2173" gradientUnits="userSpaceOnUse">
<stop stop-color="#9BE7FF"/>
<stop offset="1" stop-color="#00728B"/>
</linearGradient>
<linearGradient id="paint5_linear_2317_1740" x1="36.9934" y1="55.1862" x2="36.9934" y2="39.3874" gradientUnits="userSpaceOnUse">
<stop stop-color="#6BDCFF"/>
<stop offset="0.0416667" stop-color="#6DD2FF"/>
<stop offset="1" stop-color="#9E00FF"/>
</linearGradient>
<linearGradient id="paint6_linear_2317_1740" x1="36.9934" y1="55.1862" x2="36.9934" y2="39.3874" gradientUnits="userSpaceOnUse">
<stop stop-color="#9E00FF"/>
<stop offset="1" stop-color="#1C1C1C"/>
</linearGradient>
<linearGradient id="paint7_linear_2317_1740" x1="24.0184" y1="33.8091" x2="31.3447" y2="41.1355" gradientUnits="userSpaceOnUse">
<stop stop-color="#34004D"/>
<stop offset="1" stop-color="#B415FF"/>
</linearGradient>
<linearGradient id="paint8_linear_2317_1740" x1="24.0164" y1="33.8091" x2="31.3428" y2="41.1355" gradientUnits="userSpaceOnUse">
<stop stop-color="#34004D"/>
<stop offset="1" stop-color="#B415FF"/>
</linearGradient>
<linearGradient id="paint9_linear_2317_1740" x1="24.0164" y1="33.8091" x2="31.3428" y2="41.1355" gradientUnits="userSpaceOnUse">
<stop stop-color="#34004D"/>
<stop offset="1" stop-color="#B415FF"/>
</linearGradient>
<linearGradient id="paint10_linear_2317_1740" x1="30.7677" y1="32.9925" x2="30.1733" y2="37.5075" gradientUnits="userSpaceOnUse">
<stop stop-color="#373737"/>
<stop offset="1" stop-color="#131313"/>
</linearGradient>
<linearGradient id="paint11_linear_2317_1740" x1="30.7677" y1="32.9925" x2="30.1733" y2="37.5075" gradientUnits="userSpaceOnUse">
<stop stop-color="#2E2E2E"/>
<stop offset="1"/>
</linearGradient>
<linearGradient id="paint12_linear_2317_1740" x1="29.0284" y1="32.062" x2="29.0284" y2="34.6193" gradientUnits="userSpaceOnUse">
<stop stop-color="white"/>
<stop offset="1" stop-color="white" stop-opacity="0"/>
</linearGradient>
<linearGradient id="paint13_linear_2317_1740" x1="28.5255" y1="33.7221" x2="28.5255" y2="35.3899" gradientUnits="userSpaceOnUse">
<stop stop-color="white"/>
<stop offset="1" stop-color="white" stop-opacity="0"/>
</linearGradient>
<linearGradient id="paint14_linear_2317_1740" x1="37.9916" y1="31.4101" x2="45.4252" y2="38.8437" gradientUnits="userSpaceOnUse">
<stop stop-color="#34004D"/>
<stop offset="1" stop-color="#B415FF"/>
</linearGradient>
<linearGradient id="paint15_linear_2317_1740" x1="37.9936" y1="31.4101" x2="45.4271" y2="38.8437" gradientUnits="userSpaceOnUse">
<stop stop-color="#34004D"/>
<stop offset="1" stop-color="#B415FF"/>
</linearGradient>
<linearGradient id="paint16_linear_2317_1740" x1="37.9936" y1="31.4101" x2="45.4271" y2="38.8437" gradientUnits="userSpaceOnUse">
<stop stop-color="#34004D"/>
<stop offset="1" stop-color="#B415FF"/>
</linearGradient>
<linearGradient id="paint17_linear_2317_1740" x1="43.5604" y1="32.9915" x2="44.1548" y2="37.5066" gradientUnits="userSpaceOnUse">
<stop stop-color="#2E2E2E"/>
<stop offset="1"/>
</linearGradient>
<linearGradient id="paint18_linear_2317_1740" x1="43.4659" y1="32.0611" x2="43.4659" y2="34.6183" gradientUnits="userSpaceOnUse">
<stop stop-color="white"/>
<stop offset="1" stop-color="white" stop-opacity="0"/>
</linearGradient>
<linearGradient id="paint19_linear_2317_1740" x1="42.9825" y1="33.7211" x2="42.9825" y2="35.3889" gradientUnits="userSpaceOnUse">
<stop stop-color="white"/>
<stop offset="1" stop-color="white" stop-opacity="0"/>
</linearGradient>
</defs>
</svg>
