<svg width="66" height="66" viewBox="0 0 66 66" fill="none" xmlns="http://www.w3.org/2000/svg">
<g clip-path="url(#clip0_2819_3033)">
<path fill-rule="evenodd" clip-rule="evenodd" d="M33 0C14.7733 0 -7.15256e-07 14.7733 -7.15256e-07 33C-7.15256e-07 51.2267 14.7733 66 33 66C51.2267 66 66 51.2267 66 33C66 14.7733 51.2267 0 33 0Z" fill="#F0B90B"/>
<path d="M47.8631 33L47.8393 41.726L40.4249 46.089V51.1976L52.1785 44.3041V30.4483L47.8631 33ZM47.8631 24.2741V29.3589L52.1812 26.8046V21.7197L47.8631 19.1654L43.5239 21.7197L47.8631 24.2741ZM37.3285 21.7197L33.0105 19.1654L28.6713 21.7197L33.0105 24.2741L37.3285 21.7197Z" fill="white"/>
<path d="M44.7432 39.9173V34.8087L40.4251 37.363V42.4479L44.7432 39.9173ZM37.3287 47.9188L33.0107 50.4731L28.6715 47.9188V53.0036L33.0107 55.558L37.3287 53.0036V47.9188ZM22.4787 21.7197L18.1607 19.1654L13.8215 21.7197V26.8046L18.1607 29.3589V24.2741L22.4787 21.7197ZM18.1607 41.726L18.1369 33L13.8189 30.4457V44.3015L25.5725 51.195V46.0863L18.1607 41.726Z" fill="white"/>
<path d="M21.2572 39.9172L25.5752 42.4478V37.3629L21.2572 34.8086V39.9172Z" fill="white"/>
<path d="M21.2571 26.0826L21.2333 31.1913L28.6689 35.5543V44.3014L32.9869 46.8319L37.3049 44.3014V35.5543L44.7405 31.1913V26.0826L40.404 23.5283L33.0134 27.9124L25.5778 23.5283L21.2386 26.0826H21.2571ZM44.7432 17.3593L33.0107 10.442L21.2571 17.3593L25.5751 19.9137L33.0107 15.5295L40.4251 19.9137L44.7432 17.3593Z" fill="white"/>
</g>
<defs>
<clipPath id="clip0_2819_3033">
<rect width="66" height="66" fill="white" transform="matrix(-1 0 0 1 66 0)"/>
</clipPath>
</defs>
</svg>
