<svg version="1.0" xmlns="http://www.w3.org/2000/svg"
viewBox="0 0 256 256"
 preserveAspectRatio="xMidYMid meet">

<g transform="translate(0.000000,256.000000) scale(0.100000,-0.100000)"
fill="#784ffe" stroke="none">
<circle cx="1280" cy="1280" r="1000" fill="#ffffff"/>
<path d="M1125 2289 c-235 -34 -484 -178 -637 -368 -297 -370 -304 -880 -18
-1259 369 -491 1094 -539 1531 -103 312 312 388 787 189 1181 -198 392 -625
612 -1065 549z m485 -754 c0 -3 -36 -59 -80 -125 -44 -66 -80 -122 -80 -125 0
-3 90 -5 201 -5 l200 0 -88 -130 -88 -129 -363 -3 c-199 -2 -362 1 -362 5 0 5
36 61 80 125 l81 117 -196 3 c-123 1 -195 6 -195 13 0 10 131 210 158 242 14
16 45 17 374 17 197 0 358 -2 358 -5z"/>
</g>
</svg>
