<svg width="66" height="66" viewBox="0 0 47 47" fill="none" xmlns="http://www.w3.org/2000/svg">
<path d="M23.5 0C17.2688 0 11.2873 2.47741 6.88477 6.88293C2.47764 11.2902 0.00122079 17.2673 0 23.5C0 29.7301 2.47852 35.7116 6.88477 40.1171C11.2873 44.5226 17.2688 47 23.5 47C29.7312 47 35.7127 44.5226 40.1152 40.1171C44.5215 35.7116 47 29.7301 47 23.5C47 17.2699 44.5215 11.2884 40.1152 6.88293C35.7127 2.47741 29.7312 0 23.5 0Z" fill="url(#paint0_linear_1021_837)"/>
<path d="M10.6374 23.2518C17.4891 20.2673 22.057 18.2995 24.3409 17.3489C30.8695 14.6343 32.2244 14.1628 33.1093 14.1468C33.3039 14.1437 33.7372 14.1918 34.0199 14.4204C34.2549 14.6131 34.321 14.8738 34.3541 15.0569C34.3834 15.2398 34.4238 15.6565 34.3908 15.9818C34.0383 19.6978 32.5071 28.7152 31.7287 32.8772C31.4019 34.6383 30.752 35.2287 30.1241 35.2864C28.7581 35.4119 27.7227 34.3845 26.4008 33.5183C24.3335 32.1623 23.1659 31.3185 21.1573 29.9955C18.8367 28.4666 20.3422 27.6261 21.6641 26.2528C22.0092 25.8933 28.0237 20.4241 28.1376 19.928C28.1523 19.8659 28.167 19.6346 28.0274 19.5127C27.8916 19.3904 27.6896 19.4323 27.5427 19.4653C27.3334 19.5123 24.0324 21.6964 17.6287 26.0171C16.6923 26.6611 15.8441 26.9751 15.0804 26.9585C14.2432 26.9405 12.6276 26.4841 11.4269 26.0942C9.95813 25.6157 8.7868 25.3627 8.88961 24.5502C8.94102 24.1272 9.52484 23.6942 10.6374 23.2518Z" fill="white"/>
<defs>
<linearGradient id="paint0_linear_1021_837" x1="23.5" y1="0" x2="23.5" y2="47" gradientUnits="userSpaceOnUse">
<stop stop-color="#2AABEE"/>
<stop offset="1" stop-color="#229ED9"/>
</linearGradient>
</defs>
</svg>
